<mxfile host="Electron" modified="2024-04-15T15:14:00.921Z" agent="Mozilla/5.0 (Windows NT 10.0; Win64; x64) AppleWebKit/537.36 (KHTML, like Gecko) draw.io/24.2.5 Chrome/120.0.6099.109 Electron/28.1.0 Safari/537.36" etag="fPEUpCSAeCGApDl18jqf" version="24.2.5" type="device" pages="13">
  <diagram name="example0" id="cKiWgRmwAkXyqcd1njUu">
    <mxGraphModel dx="392" dy="548" grid="1" gridSize="10" guides="1" tooltips="1" connect="1" arrows="1" fold="1" page="1" pageScale="1" pageWidth="850" pageHeight="1100" math="0" shadow="0">
      <root>
        <mxCell id="0" />
        <mxCell id="1" parent="0" />
        <mxCell id="HLOMTnPG5g_NIwiL05IC-1" value="" style="rounded=0;whiteSpace=wrap;html=1;shadow=0;fillStyle=solid;fillColor=#e1d5e7;strokeColor=#9673a6;" parent="1" vertex="1">
          <mxGeometry x="480" y="200" width="40" height="50" as="geometry" />
        </mxCell>
        <mxCell id="HLOMTnPG5g_NIwiL05IC-2" value="" style="rounded=0;whiteSpace=wrap;html=1;shadow=0;fillStyle=dashed;fillColor=#000000;" parent="1" vertex="1">
          <mxGeometry x="480" y="200" width="40" height="50" as="geometry" />
        </mxCell>
        <mxCell id="HLOMTnPG5g_NIwiL05IC-3" value="" style="rounded=0;whiteSpace=wrap;html=1;fillStyle=solid;fillColor=#e1d5e7;strokeColor=#9673a6;" parent="1" vertex="1">
          <mxGeometry x="640" y="200" width="40" height="50" as="geometry" />
        </mxCell>
        <mxCell id="HLOMTnPG5g_NIwiL05IC-4" value="" style="rounded=0;whiteSpace=wrap;html=1;fillStyle=dashed;fillColor=#000000;" parent="1" vertex="1">
          <mxGeometry x="640" y="200" width="40" height="50" as="geometry" />
        </mxCell>
        <mxCell id="HLOMTnPG5g_NIwiL05IC-5" value="" style="endArrow=none;html=1;rounded=0;" parent="1" edge="1">
          <mxGeometry width="50" height="50" relative="1" as="geometry">
            <mxPoint x="100" y="320" as="sourcePoint" />
            <mxPoint x="100" y="120" as="targetPoint" />
          </mxGeometry>
        </mxCell>
        <mxCell id="HLOMTnPG5g_NIwiL05IC-6" value="" style="endArrow=none;html=1;rounded=0;" parent="1" edge="1">
          <mxGeometry width="50" height="50" relative="1" as="geometry">
            <mxPoint x="100" y="320" as="sourcePoint" />
            <mxPoint x="300" y="320" as="targetPoint" />
          </mxGeometry>
        </mxCell>
        <mxCell id="HLOMTnPG5g_NIwiL05IC-7" value="" style="rounded=0;whiteSpace=wrap;html=1;" parent="1" vertex="1">
          <mxGeometry x="140" y="200" width="40" height="120" as="geometry" />
        </mxCell>
        <mxCell id="HLOMTnPG5g_NIwiL05IC-8" value="" style="rounded=0;whiteSpace=wrap;html=1;" parent="1" vertex="1">
          <mxGeometry x="220" y="200" width="40" height="120" as="geometry" />
        </mxCell>
        <mxCell id="HLOMTnPG5g_NIwiL05IC-9" value="S&lt;sub&gt;A&lt;/sub&gt;" style="text;html=1;align=center;verticalAlign=middle;resizable=0;points=[];autosize=1;strokeColor=none;fillColor=none;" parent="1" vertex="1">
          <mxGeometry x="140" y="325" width="40" height="30" as="geometry" />
        </mxCell>
        <mxCell id="HLOMTnPG5g_NIwiL05IC-10" value="S&lt;sub&gt;B&lt;/sub&gt;" style="text;html=1;align=center;verticalAlign=middle;resizable=0;points=[];autosize=1;strokeColor=none;fillColor=none;" parent="1" vertex="1">
          <mxGeometry x="220" y="325" width="40" height="30" as="geometry" />
        </mxCell>
        <mxCell id="HLOMTnPG5g_NIwiL05IC-11" value="1" style="text;html=1;align=center;verticalAlign=middle;resizable=0;points=[];autosize=1;strokeColor=none;fillColor=none;" parent="1" vertex="1">
          <mxGeometry x="65" y="265" width="30" height="30" as="geometry" />
        </mxCell>
        <mxCell id="HLOMTnPG5g_NIwiL05IC-12" value="2" style="text;html=1;align=center;verticalAlign=middle;resizable=0;points=[];autosize=1;strokeColor=none;fillColor=none;" parent="1" vertex="1">
          <mxGeometry x="65" y="225" width="30" height="30" as="geometry" />
        </mxCell>
        <mxCell id="HLOMTnPG5g_NIwiL05IC-13" value="3" style="text;html=1;align=center;verticalAlign=middle;resizable=0;points=[];autosize=1;strokeColor=none;fillColor=none;" parent="1" vertex="1">
          <mxGeometry x="65" y="185" width="30" height="30" as="geometry" />
        </mxCell>
        <mxCell id="HLOMTnPG5g_NIwiL05IC-14" value="4" style="text;html=1;align=center;verticalAlign=middle;resizable=0;points=[];autosize=1;strokeColor=none;fillColor=none;" parent="1" vertex="1">
          <mxGeometry x="65" y="145" width="30" height="30" as="geometry" />
        </mxCell>
        <mxCell id="HLOMTnPG5g_NIwiL05IC-15" value="5" style="text;html=1;align=center;verticalAlign=middle;resizable=0;points=[];autosize=1;strokeColor=none;fillColor=none;" parent="1" vertex="1">
          <mxGeometry x="66" y="105" width="30" height="30" as="geometry" />
        </mxCell>
        <mxCell id="HLOMTnPG5g_NIwiL05IC-16" value="0" style="text;html=1;align=center;verticalAlign=middle;resizable=0;points=[];autosize=1;strokeColor=none;fillColor=none;" parent="1" vertex="1">
          <mxGeometry x="65" y="305" width="30" height="30" as="geometry" />
        </mxCell>
        <mxCell id="HLOMTnPG5g_NIwiL05IC-17" value="A0" style="text;html=1;align=center;verticalAlign=middle;resizable=0;points=[];autosize=1;strokeColor=none;fillColor=none;" parent="1" vertex="1">
          <mxGeometry x="140" y="295" width="40" height="30" as="geometry" />
        </mxCell>
        <mxCell id="HLOMTnPG5g_NIwiL05IC-18" value="B0" style="text;html=1;align=center;verticalAlign=middle;resizable=0;points=[];autosize=1;strokeColor=none;fillColor=none;" parent="1" vertex="1">
          <mxGeometry x="220" y="295" width="40" height="30" as="geometry" />
        </mxCell>
        <mxCell id="HLOMTnPG5g_NIwiL05IC-19" value="" style="endArrow=open;endFill=1;endSize=12;html=1;rounded=0;" parent="1" edge="1">
          <mxGeometry width="160" relative="1" as="geometry">
            <mxPoint x="100" y="120" as="sourcePoint" />
            <mxPoint x="100" y="80" as="targetPoint" />
          </mxGeometry>
        </mxCell>
        <mxCell id="HLOMTnPG5g_NIwiL05IC-20" value="timestamp" style="text;html=1;align=center;verticalAlign=middle;resizable=0;points=[];autosize=1;strokeColor=none;fillColor=none;" parent="1" vertex="1">
          <mxGeometry x="20" y="65" width="80" height="30" as="geometry" />
        </mxCell>
        <mxCell id="HLOMTnPG5g_NIwiL05IC-21" value="" style="rounded=0;whiteSpace=wrap;html=1;fillColor=#e1d5e7;strokeColor=#000000;" parent="1" vertex="1">
          <mxGeometry x="220" y="120" width="40" height="80" as="geometry" />
        </mxCell>
        <mxCell id="HLOMTnPG5g_NIwiL05IC-22" value="B1" style="text;html=1;align=center;verticalAlign=middle;resizable=0;points=[];autosize=1;strokeColor=none;fillColor=none;" parent="1" vertex="1">
          <mxGeometry x="220" y="175" width="40" height="30" as="geometry" />
        </mxCell>
        <mxCell id="HLOMTnPG5g_NIwiL05IC-23" value="" style="rounded=0;whiteSpace=wrap;html=1;fillColor=#f8cecc;strokeColor=#000000;" parent="1" vertex="1">
          <mxGeometry x="220" y="100" width="40" height="20" as="geometry" />
        </mxCell>
        <mxCell id="HLOMTnPG5g_NIwiL05IC-24" value="" style="rounded=0;whiteSpace=wrap;html=1;dashed=1;fillColor=#dae8fc;strokeColor=#000000;" parent="1" vertex="1">
          <mxGeometry x="140" y="100" width="40" height="40" as="geometry" />
        </mxCell>
        <mxCell id="HLOMTnPG5g_NIwiL05IC-25" value="" style="rounded=0;whiteSpace=wrap;html=1;dashed=1;fillColor=#f8cecc;strokeColor=#000000;" parent="1" vertex="1">
          <mxGeometry x="220" y="60" width="40" height="40" as="geometry" />
        </mxCell>
        <mxCell id="HLOMTnPG5g_NIwiL05IC-26" value="" style="rounded=0;whiteSpace=wrap;html=1;strokeColor=none;fillColor=#f8cecc;" parent="1" vertex="1">
          <mxGeometry x="220" y="52.5" width="40" height="55" as="geometry" />
        </mxCell>
        <mxCell id="HLOMTnPG5g_NIwiL05IC-27" value="" style="rounded=0;whiteSpace=wrap;html=1;fillColor=#e1d5e7;strokeColor=#000000;" parent="1" vertex="1">
          <mxGeometry x="140" y="140" width="40" height="60" as="geometry" />
        </mxCell>
        <mxCell id="HLOMTnPG5g_NIwiL05IC-28" value="A1" style="text;html=1;align=center;verticalAlign=middle;resizable=0;points=[];autosize=1;strokeColor=none;fillColor=none;" parent="1" vertex="1">
          <mxGeometry x="140" y="175" width="40" height="30" as="geometry" />
        </mxCell>
        <mxCell id="HLOMTnPG5g_NIwiL05IC-29" value="" style="endArrow=none;dashed=1;html=1;rounded=0;strokeColor=#CC0000;strokeWidth=2;" parent="1" edge="1">
          <mxGeometry width="50" height="50" relative="1" as="geometry">
            <mxPoint x="100" y="200" as="sourcePoint" />
            <mxPoint x="300" y="200" as="targetPoint" />
          </mxGeometry>
        </mxCell>
        <mxCell id="HLOMTnPG5g_NIwiL05IC-30" value="B2" style="text;html=1;align=center;verticalAlign=middle;resizable=0;points=[];autosize=1;strokeColor=none;fillColor=none;" parent="1" vertex="1">
          <mxGeometry x="220" y="95" width="40" height="30" as="geometry" />
        </mxCell>
        <mxCell id="HLOMTnPG5g_NIwiL05IC-31" value="" style="endArrow=none;html=1;rounded=0;" parent="1" edge="1">
          <mxGeometry width="50" height="50" relative="1" as="geometry">
            <mxPoint x="400" y="320" as="sourcePoint" />
            <mxPoint x="400" y="120" as="targetPoint" />
          </mxGeometry>
        </mxCell>
        <mxCell id="HLOMTnPG5g_NIwiL05IC-32" value="" style="endArrow=none;html=1;rounded=0;" parent="1" edge="1">
          <mxGeometry width="50" height="50" relative="1" as="geometry">
            <mxPoint x="400" y="320" as="sourcePoint" />
            <mxPoint x="800" y="320" as="targetPoint" />
          </mxGeometry>
        </mxCell>
        <mxCell id="HLOMTnPG5g_NIwiL05IC-33" value="" style="rounded=0;whiteSpace=wrap;html=1;" parent="1" vertex="1">
          <mxGeometry x="440" y="200" width="40" height="120" as="geometry" />
        </mxCell>
        <mxCell id="HLOMTnPG5g_NIwiL05IC-34" value="" style="rounded=0;whiteSpace=wrap;html=1;" parent="1" vertex="1">
          <mxGeometry x="600" y="200" width="40" height="120" as="geometry" />
        </mxCell>
        <mxCell id="HLOMTnPG5g_NIwiL05IC-35" value="S&lt;sub&gt;A&lt;/sub&gt;" style="text;html=1;align=center;verticalAlign=middle;resizable=0;points=[];autosize=1;strokeColor=none;fillColor=none;" parent="1" vertex="1">
          <mxGeometry x="440" y="325" width="40" height="30" as="geometry" />
        </mxCell>
        <mxCell id="HLOMTnPG5g_NIwiL05IC-36" value="S&lt;sub&gt;B&lt;/sub&gt;" style="text;html=1;align=center;verticalAlign=middle;resizable=0;points=[];autosize=1;strokeColor=none;fillColor=none;" parent="1" vertex="1">
          <mxGeometry x="600" y="325" width="40" height="30" as="geometry" />
        </mxCell>
        <mxCell id="HLOMTnPG5g_NIwiL05IC-37" value="1" style="text;html=1;align=center;verticalAlign=middle;resizable=0;points=[];autosize=1;strokeColor=none;fillColor=none;" parent="1" vertex="1">
          <mxGeometry x="365" y="265" width="30" height="30" as="geometry" />
        </mxCell>
        <mxCell id="HLOMTnPG5g_NIwiL05IC-38" value="2" style="text;html=1;align=center;verticalAlign=middle;resizable=0;points=[];autosize=1;strokeColor=none;fillColor=none;" parent="1" vertex="1">
          <mxGeometry x="365" y="225" width="30" height="30" as="geometry" />
        </mxCell>
        <mxCell id="HLOMTnPG5g_NIwiL05IC-39" value="3" style="text;html=1;align=center;verticalAlign=middle;resizable=0;points=[];autosize=1;strokeColor=none;fillColor=none;" parent="1" vertex="1">
          <mxGeometry x="365" y="185" width="30" height="30" as="geometry" />
        </mxCell>
        <mxCell id="HLOMTnPG5g_NIwiL05IC-40" value="4" style="text;html=1;align=center;verticalAlign=middle;resizable=0;points=[];autosize=1;strokeColor=none;fillColor=none;" parent="1" vertex="1">
          <mxGeometry x="365" y="145" width="30" height="30" as="geometry" />
        </mxCell>
        <mxCell id="HLOMTnPG5g_NIwiL05IC-41" value="5" style="text;html=1;align=center;verticalAlign=middle;resizable=0;points=[];autosize=1;strokeColor=none;fillColor=none;" parent="1" vertex="1">
          <mxGeometry x="366" y="105" width="30" height="30" as="geometry" />
        </mxCell>
        <mxCell id="HLOMTnPG5g_NIwiL05IC-42" value="0" style="text;html=1;align=center;verticalAlign=middle;resizable=0;points=[];autosize=1;strokeColor=none;fillColor=none;" parent="1" vertex="1">
          <mxGeometry x="365" y="305" width="30" height="30" as="geometry" />
        </mxCell>
        <mxCell id="HLOMTnPG5g_NIwiL05IC-43" value="A0" style="text;html=1;align=center;verticalAlign=middle;resizable=0;points=[];autosize=1;strokeColor=none;fillColor=none;" parent="1" vertex="1">
          <mxGeometry x="440" y="295" width="40" height="30" as="geometry" />
        </mxCell>
        <mxCell id="HLOMTnPG5g_NIwiL05IC-44" value="B0" style="text;html=1;align=center;verticalAlign=middle;resizable=0;points=[];autosize=1;strokeColor=none;fillColor=none;" parent="1" vertex="1">
          <mxGeometry x="600" y="295" width="40" height="30" as="geometry" />
        </mxCell>
        <mxCell id="HLOMTnPG5g_NIwiL05IC-45" value="" style="endArrow=open;endFill=1;endSize=12;html=1;rounded=0;" parent="1" edge="1">
          <mxGeometry width="160" relative="1" as="geometry">
            <mxPoint x="400" y="120" as="sourcePoint" />
            <mxPoint x="400" y="80" as="targetPoint" />
          </mxGeometry>
        </mxCell>
        <mxCell id="HLOMTnPG5g_NIwiL05IC-46" value="timestamp" style="text;html=1;align=center;verticalAlign=middle;resizable=0;points=[];autosize=1;strokeColor=none;fillColor=none;" parent="1" vertex="1">
          <mxGeometry x="320" y="65" width="80" height="30" as="geometry" />
        </mxCell>
        <mxCell id="HLOMTnPG5g_NIwiL05IC-47" value="" style="rounded=0;whiteSpace=wrap;html=1;fillColor=#e1d5e7;strokeColor=#000000;" parent="1" vertex="1">
          <mxGeometry x="640" y="120" width="40" height="80" as="geometry" />
        </mxCell>
        <mxCell id="HLOMTnPG5g_NIwiL05IC-48" value="B1" style="text;html=1;align=center;verticalAlign=middle;resizable=0;points=[];autosize=1;strokeColor=none;fillColor=none;" parent="1" vertex="1">
          <mxGeometry x="640" y="175" width="40" height="30" as="geometry" />
        </mxCell>
        <mxCell id="HLOMTnPG5g_NIwiL05IC-49" value="" style="rounded=0;whiteSpace=wrap;html=1;fillColor=#f8cecc;strokeColor=#000000;" parent="1" vertex="1">
          <mxGeometry x="680" y="100" width="40" height="20" as="geometry" />
        </mxCell>
        <mxCell id="HLOMTnPG5g_NIwiL05IC-50" value="" style="rounded=0;whiteSpace=wrap;html=1;dashed=1;fillColor=#f8cecc;strokeColor=#000000;" parent="1" vertex="1">
          <mxGeometry x="680" y="60" width="40" height="40" as="geometry" />
        </mxCell>
        <mxCell id="HLOMTnPG5g_NIwiL05IC-51" value="" style="rounded=0;whiteSpace=wrap;html=1;strokeColor=none;fillColor=#f8cecc;" parent="1" vertex="1">
          <mxGeometry x="680" y="52.5" width="40" height="55" as="geometry" />
        </mxCell>
        <mxCell id="HLOMTnPG5g_NIwiL05IC-52" value="B2" style="text;html=1;align=center;verticalAlign=middle;resizable=0;points=[];autosize=1;strokeColor=none;fillColor=none;" parent="1" vertex="1">
          <mxGeometry x="680" y="95" width="40" height="30" as="geometry" />
        </mxCell>
        <mxCell id="HLOMTnPG5g_NIwiL05IC-53" value="" style="rounded=0;whiteSpace=wrap;html=1;fillStyle=solid;fillColor=#f8cecc;strokeColor=none;" parent="1" vertex="1">
          <mxGeometry x="680" y="120" width="40" height="110" as="geometry" />
        </mxCell>
        <mxCell id="HLOMTnPG5g_NIwiL05IC-54" value="" style="rounded=0;whiteSpace=wrap;html=1;fillStyle=dashed;fillColor=#000000;" parent="1" vertex="1">
          <mxGeometry x="680" y="120" width="40" height="110" as="geometry" />
        </mxCell>
        <mxCell id="HLOMTnPG5g_NIwiL05IC-55" value="" style="endArrow=none;dashed=1;html=1;rounded=0;strokeColor=#CC0000;strokeWidth=2;" parent="1" edge="1">
          <mxGeometry width="50" height="50" relative="1" as="geometry">
            <mxPoint x="100" y="319" as="sourcePoint" />
            <mxPoint x="300" y="319" as="targetPoint" />
          </mxGeometry>
        </mxCell>
        <mxCell id="HLOMTnPG5g_NIwiL05IC-56" value="" style="endArrow=none;dashed=1;html=1;rounded=0;strokeColor=#CC0000;strokeWidth=2;" parent="1" edge="1">
          <mxGeometry width="50" height="50" relative="1" as="geometry">
            <mxPoint x="400" y="319" as="sourcePoint" />
            <mxPoint x="800" y="319" as="targetPoint" />
          </mxGeometry>
        </mxCell>
        <mxCell id="HLOMTnPG5g_NIwiL05IC-57" value="&lt;font color=&quot;#cc0000&quot;&gt;cl&lt;sub&gt;2&lt;/sub&gt;. gst&lt;/font&gt;" style="text;html=1;align=center;verticalAlign=middle;resizable=0;points=[];autosize=1;strokeColor=none;fillColor=none;" parent="1" vertex="1">
          <mxGeometry x="20" y="305" width="60" height="30" as="geometry" />
        </mxCell>
        <mxCell id="HLOMTnPG5g_NIwiL05IC-58" value="&lt;font color=&quot;#cc0000&quot;&gt;cl&lt;sub&gt;2&lt;/sub&gt;. gst&lt;/font&gt;" style="text;html=1;align=center;verticalAlign=middle;resizable=0;points=[];autosize=1;strokeColor=none;fillColor=none;" parent="1" vertex="1">
          <mxGeometry x="20" y="185" width="60" height="30" as="geometry" />
        </mxCell>
        <mxCell id="HLOMTnPG5g_NIwiL05IC-59" value="&lt;font color=&quot;#cc0000&quot;&gt;cl&lt;sub&gt;2&lt;/sub&gt;. gst&lt;/font&gt;" style="text;html=1;align=center;verticalAlign=middle;resizable=0;points=[];autosize=1;strokeColor=none;fillColor=none;" parent="1" vertex="1">
          <mxGeometry x="20" y="105" width="60" height="30" as="geometry" />
        </mxCell>
        <mxCell id="HLOMTnPG5g_NIwiL05IC-60" value="" style="rounded=0;whiteSpace=wrap;html=1;strokeColor=none;fillColor=#e1d5e7;" parent="1" vertex="1">
          <mxGeometry x="140" y="90" width="40" height="55" as="geometry" />
        </mxCell>
        <mxCell id="HLOMTnPG5g_NIwiL05IC-61" value="" style="endArrow=none;dashed=1;html=1;rounded=0;strokeColor=#CC0000;strokeWidth=2;" parent="1" edge="1">
          <mxGeometry width="50" height="50" relative="1" as="geometry">
            <mxPoint x="100" y="119" as="sourcePoint" />
            <mxPoint x="300" y="120" as="targetPoint" />
          </mxGeometry>
        </mxCell>
        <mxCell id="HLOMTnPG5g_NIwiL05IC-62" value="" style="rounded=0;whiteSpace=wrap;html=1;dashed=1;fillColor=#dae8fc;strokeColor=#000000;" parent="1" vertex="1">
          <mxGeometry x="480" y="100" width="40" height="40" as="geometry" />
        </mxCell>
        <mxCell id="HLOMTnPG5g_NIwiL05IC-63" value="" style="rounded=0;whiteSpace=wrap;html=1;fillColor=#e1d5e7;strokeColor=#000000;" parent="1" vertex="1">
          <mxGeometry x="480" y="140" width="40" height="60" as="geometry" />
        </mxCell>
        <mxCell id="HLOMTnPG5g_NIwiL05IC-64" value="A1" style="text;html=1;align=center;verticalAlign=middle;resizable=0;points=[];autosize=1;strokeColor=none;fillColor=none;" parent="1" vertex="1">
          <mxGeometry x="480" y="175" width="40" height="30" as="geometry" />
        </mxCell>
        <mxCell id="HLOMTnPG5g_NIwiL05IC-65" value="" style="rounded=0;whiteSpace=wrap;html=1;strokeColor=none;fillColor=#e1d5e7;" parent="1" vertex="1">
          <mxGeometry x="480" y="90" width="40" height="55" as="geometry" />
        </mxCell>
        <mxCell id="HLOMTnPG5g_NIwiL05IC-66" value="" style="endArrow=none;dashed=1;html=1;rounded=0;strokeColor=#CC0000;strokeWidth=2;" parent="1" edge="1">
          <mxGeometry width="50" height="50" relative="1" as="geometry">
            <mxPoint x="400" y="120" as="sourcePoint" />
            <mxPoint x="800" y="120" as="targetPoint" />
          </mxGeometry>
        </mxCell>
        <mxCell id="HLOMTnPG5g_NIwiL05IC-67" value="" style="endArrow=none;dashed=1;html=1;rounded=0;strokeColor=#CC0000;strokeWidth=2;" parent="1" edge="1">
          <mxGeometry width="50" height="50" relative="1" as="geometry">
            <mxPoint x="400" y="200" as="sourcePoint" />
            <mxPoint x="800" y="200" as="targetPoint" />
          </mxGeometry>
        </mxCell>
        <mxCell id="HLOMTnPG5g_NIwiL05IC-68" value="&lt;font color=&quot;#6600cc&quot;&gt;&lt;span style=&quot;font-size: 13px;&quot;&gt;v_writer = cl&lt;/span&gt;&lt;sub style=&quot;&quot;&gt;1&lt;/sub&gt;&lt;/font&gt;" style="text;html=1;align=center;verticalAlign=middle;resizable=0;points=[];autosize=1;strokeColor=none;fillColor=none;fontSize=8;fontColor=#000000;" parent="1" vertex="1">
          <mxGeometry x="150" y="135" width="100" height="30" as="geometry" />
        </mxCell>
        <mxCell id="HLOMTnPG5g_NIwiL05IC-69" value="&lt;font color=&quot;#cc0000&quot;&gt;&lt;span style=&quot;font-size: 13px;&quot;&gt;v_writer = cl&lt;/span&gt;&lt;span style=&quot;font-size: 6.66667px;&quot;&gt;2&lt;/span&gt;&lt;/font&gt;" style="text;html=1;align=center;verticalAlign=middle;resizable=0;points=[];autosize=1;strokeColor=none;fillColor=none;fontSize=8;fontColor=#000000;" parent="1" vertex="1">
          <mxGeometry x="150" y="60" width="100" height="30" as="geometry" />
        </mxCell>
      </root>
    </mxGraphModel>
  </diagram>
  <diagram id="a4QUUW6ygenNSpT7nI0_" name="example1">
    <mxGraphModel dx="392" dy="548" grid="1" gridSize="10" guides="1" tooltips="1" connect="1" arrows="1" fold="1" page="1" pageScale="1" pageWidth="850" pageHeight="1100" math="0" shadow="0">
      <root>
        <mxCell id="0" />
        <mxCell id="1" parent="0" />
        <mxCell id="8n56hZcwp911cYdUczAd-1" value="&lt;font color=&quot;#cc0000&quot;&gt;&amp;nbsp;B1&lt;/font&gt;" style="text;html=1;align=center;verticalAlign=middle;resizable=0;points=[];autosize=1;strokeColor=none;fillColor=none;" vertex="1" parent="1">
          <mxGeometry x="270" y="105" width="40" height="30" as="geometry" />
        </mxCell>
        <mxCell id="8n56hZcwp911cYdUczAd-2" value="&lt;font color=&quot;#cc0000&quot;&gt;&amp;nbsp;B2&lt;/font&gt;" style="text;html=1;align=center;verticalAlign=middle;resizable=0;points=[];autosize=1;strokeColor=none;fillColor=none;" vertex="1" parent="1">
          <mxGeometry x="270" y="185" width="40" height="30" as="geometry" />
        </mxCell>
        <mxCell id="8n56hZcwp911cYdUczAd-3" value="" style="rounded=0;whiteSpace=wrap;html=1;shadow=0;fillStyle=solid;fillColor=#e1d5e7;strokeColor=#9673a6;" vertex="1" parent="1">
          <mxGeometry x="490" y="210" width="40" height="50" as="geometry" />
        </mxCell>
        <mxCell id="8n56hZcwp911cYdUczAd-4" value="" style="rounded=0;whiteSpace=wrap;html=1;shadow=0;fillStyle=dashed;fillColor=#000000;" vertex="1" parent="1">
          <mxGeometry x="490" y="210" width="40" height="50" as="geometry" />
        </mxCell>
        <mxCell id="8n56hZcwp911cYdUczAd-5" value="" style="rounded=0;whiteSpace=wrap;html=1;fillStyle=solid;fillColor=#e1d5e7;strokeColor=#9673a6;" vertex="1" parent="1">
          <mxGeometry x="650" y="210" width="40" height="50" as="geometry" />
        </mxCell>
        <mxCell id="8n56hZcwp911cYdUczAd-6" value="" style="rounded=0;whiteSpace=wrap;html=1;fillStyle=dashed;fillColor=#000000;" vertex="1" parent="1">
          <mxGeometry x="650" y="210" width="40" height="50" as="geometry" />
        </mxCell>
        <mxCell id="8n56hZcwp911cYdUczAd-7" value="" style="endArrow=none;html=1;rounded=0;" edge="1" parent="1">
          <mxGeometry width="50" height="50" relative="1" as="geometry">
            <mxPoint x="110" y="330" as="sourcePoint" />
            <mxPoint x="110" y="130" as="targetPoint" />
          </mxGeometry>
        </mxCell>
        <mxCell id="8n56hZcwp911cYdUczAd-8" value="" style="endArrow=none;html=1;rounded=0;" edge="1" parent="1">
          <mxGeometry width="50" height="50" relative="1" as="geometry">
            <mxPoint x="110" y="330" as="sourcePoint" />
            <mxPoint x="310" y="330" as="targetPoint" />
          </mxGeometry>
        </mxCell>
        <mxCell id="8n56hZcwp911cYdUczAd-9" value="" style="rounded=0;whiteSpace=wrap;html=1;" vertex="1" parent="1">
          <mxGeometry x="150" y="210" width="40" height="120" as="geometry" />
        </mxCell>
        <mxCell id="8n56hZcwp911cYdUczAd-10" value="" style="rounded=0;whiteSpace=wrap;html=1;" vertex="1" parent="1">
          <mxGeometry x="230" y="210" width="40" height="120" as="geometry" />
        </mxCell>
        <mxCell id="8n56hZcwp911cYdUczAd-11" value="S&lt;sub&gt;A&lt;/sub&gt;" style="text;html=1;align=center;verticalAlign=middle;resizable=0;points=[];autosize=1;strokeColor=none;fillColor=none;" vertex="1" parent="1">
          <mxGeometry x="150" y="335" width="40" height="30" as="geometry" />
        </mxCell>
        <mxCell id="8n56hZcwp911cYdUczAd-12" value="S&lt;sub&gt;B&lt;/sub&gt;" style="text;html=1;align=center;verticalAlign=middle;resizable=0;points=[];autosize=1;strokeColor=none;fillColor=none;" vertex="1" parent="1">
          <mxGeometry x="230" y="335" width="40" height="30" as="geometry" />
        </mxCell>
        <mxCell id="8n56hZcwp911cYdUczAd-13" value="1" style="text;html=1;align=center;verticalAlign=middle;resizable=0;points=[];autosize=1;strokeColor=none;fillColor=none;" vertex="1" parent="1">
          <mxGeometry x="75" y="275" width="30" height="30" as="geometry" />
        </mxCell>
        <mxCell id="8n56hZcwp911cYdUczAd-14" value="2" style="text;html=1;align=center;verticalAlign=middle;resizable=0;points=[];autosize=1;strokeColor=none;fillColor=none;" vertex="1" parent="1">
          <mxGeometry x="75" y="235" width="30" height="30" as="geometry" />
        </mxCell>
        <mxCell id="8n56hZcwp911cYdUczAd-15" value="3" style="text;html=1;align=center;verticalAlign=middle;resizable=0;points=[];autosize=1;strokeColor=none;fillColor=none;" vertex="1" parent="1">
          <mxGeometry x="75" y="195" width="30" height="30" as="geometry" />
        </mxCell>
        <mxCell id="8n56hZcwp911cYdUczAd-16" value="4" style="text;html=1;align=center;verticalAlign=middle;resizable=0;points=[];autosize=1;strokeColor=none;fillColor=none;" vertex="1" parent="1">
          <mxGeometry x="75" y="155" width="30" height="30" as="geometry" />
        </mxCell>
        <mxCell id="8n56hZcwp911cYdUczAd-17" value="5" style="text;html=1;align=center;verticalAlign=middle;resizable=0;points=[];autosize=1;strokeColor=none;fillColor=none;" vertex="1" parent="1">
          <mxGeometry x="76" y="115" width="30" height="30" as="geometry" />
        </mxCell>
        <mxCell id="8n56hZcwp911cYdUczAd-18" value="0" style="text;html=1;align=center;verticalAlign=middle;resizable=0;points=[];autosize=1;strokeColor=none;fillColor=none;" vertex="1" parent="1">
          <mxGeometry x="75" y="315" width="30" height="30" as="geometry" />
        </mxCell>
        <mxCell id="8n56hZcwp911cYdUczAd-19" value="A0" style="text;html=1;align=center;verticalAlign=middle;resizable=0;points=[];autosize=1;strokeColor=none;fillColor=none;" vertex="1" parent="1">
          <mxGeometry x="150" y="305" width="40" height="30" as="geometry" />
        </mxCell>
        <mxCell id="8n56hZcwp911cYdUczAd-20" value="B0" style="text;html=1;align=center;verticalAlign=middle;resizable=0;points=[];autosize=1;strokeColor=none;fillColor=none;" vertex="1" parent="1">
          <mxGeometry x="230" y="305" width="40" height="30" as="geometry" />
        </mxCell>
        <mxCell id="8n56hZcwp911cYdUczAd-21" value="" style="endArrow=open;endFill=1;endSize=12;html=1;rounded=0;" edge="1" parent="1">
          <mxGeometry width="160" relative="1" as="geometry">
            <mxPoint x="110" y="130" as="sourcePoint" />
            <mxPoint x="110" y="90" as="targetPoint" />
          </mxGeometry>
        </mxCell>
        <mxCell id="8n56hZcwp911cYdUczAd-22" value="timestamp" style="text;html=1;align=center;verticalAlign=middle;resizable=0;points=[];autosize=1;strokeColor=none;fillColor=none;" vertex="1" parent="1">
          <mxGeometry x="30" y="75" width="80" height="30" as="geometry" />
        </mxCell>
        <mxCell id="8n56hZcwp911cYdUczAd-23" value="" style="rounded=0;whiteSpace=wrap;html=1;fillColor=#e1d5e7;strokeColor=#000000;" vertex="1" parent="1">
          <mxGeometry x="230" y="130" width="40" height="80" as="geometry" />
        </mxCell>
        <mxCell id="8n56hZcwp911cYdUczAd-24" value="B1" style="text;html=1;align=center;verticalAlign=middle;resizable=0;points=[];autosize=1;strokeColor=none;fillColor=none;" vertex="1" parent="1">
          <mxGeometry x="230" y="185" width="40" height="30" as="geometry" />
        </mxCell>
        <mxCell id="8n56hZcwp911cYdUczAd-25" value="" style="rounded=0;whiteSpace=wrap;html=1;fillColor=#f8cecc;strokeColor=#000000;" vertex="1" parent="1">
          <mxGeometry x="230" y="110" width="40" height="20" as="geometry" />
        </mxCell>
        <mxCell id="8n56hZcwp911cYdUczAd-26" value="" style="rounded=0;whiteSpace=wrap;html=1;dashed=1;fillColor=#dae8fc;strokeColor=#000000;" vertex="1" parent="1">
          <mxGeometry x="150" y="110" width="40" height="40" as="geometry" />
        </mxCell>
        <mxCell id="8n56hZcwp911cYdUczAd-27" value="" style="rounded=0;whiteSpace=wrap;html=1;dashed=1;fillColor=#f8cecc;strokeColor=#000000;" vertex="1" parent="1">
          <mxGeometry x="230" y="70" width="40" height="40" as="geometry" />
        </mxCell>
        <mxCell id="8n56hZcwp911cYdUczAd-28" value="" style="rounded=0;whiteSpace=wrap;html=1;strokeColor=none;fillColor=#f8cecc;" vertex="1" parent="1">
          <mxGeometry x="230" y="62.5" width="40" height="55" as="geometry" />
        </mxCell>
        <mxCell id="8n56hZcwp911cYdUczAd-29" value="" style="rounded=0;whiteSpace=wrap;html=1;fillColor=#e1d5e7;strokeColor=#000000;" vertex="1" parent="1">
          <mxGeometry x="150" y="150" width="40" height="60" as="geometry" />
        </mxCell>
        <mxCell id="8n56hZcwp911cYdUczAd-30" value="A1" style="text;html=1;align=center;verticalAlign=middle;resizable=0;points=[];autosize=1;strokeColor=none;fillColor=none;" vertex="1" parent="1">
          <mxGeometry x="150" y="185" width="40" height="30" as="geometry" />
        </mxCell>
        <mxCell id="8n56hZcwp911cYdUczAd-31" value="" style="endArrow=none;dashed=1;html=1;rounded=0;strokeColor=#CC0000;strokeWidth=2;" edge="1" parent="1">
          <mxGeometry width="50" height="50" relative="1" as="geometry">
            <mxPoint x="110" y="210" as="sourcePoint" />
            <mxPoint x="310" y="210" as="targetPoint" />
          </mxGeometry>
        </mxCell>
        <mxCell id="8n56hZcwp911cYdUczAd-32" value="B2" style="text;html=1;align=center;verticalAlign=middle;resizable=0;points=[];autosize=1;strokeColor=none;fillColor=none;" vertex="1" parent="1">
          <mxGeometry x="230" y="105" width="40" height="30" as="geometry" />
        </mxCell>
        <mxCell id="8n56hZcwp911cYdUczAd-33" value="" style="endArrow=none;html=1;rounded=0;" edge="1" parent="1">
          <mxGeometry width="50" height="50" relative="1" as="geometry">
            <mxPoint x="410" y="330" as="sourcePoint" />
            <mxPoint x="410" y="130" as="targetPoint" />
          </mxGeometry>
        </mxCell>
        <mxCell id="8n56hZcwp911cYdUczAd-34" value="" style="endArrow=none;html=1;rounded=0;" edge="1" parent="1">
          <mxGeometry width="50" height="50" relative="1" as="geometry">
            <mxPoint x="410" y="330" as="sourcePoint" />
            <mxPoint x="810" y="330" as="targetPoint" />
          </mxGeometry>
        </mxCell>
        <mxCell id="8n56hZcwp911cYdUczAd-35" value="" style="rounded=0;whiteSpace=wrap;html=1;" vertex="1" parent="1">
          <mxGeometry x="450" y="210" width="40" height="120" as="geometry" />
        </mxCell>
        <mxCell id="8n56hZcwp911cYdUczAd-36" value="" style="rounded=0;whiteSpace=wrap;html=1;" vertex="1" parent="1">
          <mxGeometry x="610" y="210" width="40" height="120" as="geometry" />
        </mxCell>
        <mxCell id="8n56hZcwp911cYdUczAd-37" value="S&lt;sub&gt;A&lt;/sub&gt;" style="text;html=1;align=center;verticalAlign=middle;resizable=0;points=[];autosize=1;strokeColor=none;fillColor=none;" vertex="1" parent="1">
          <mxGeometry x="450" y="335" width="40" height="30" as="geometry" />
        </mxCell>
        <mxCell id="8n56hZcwp911cYdUczAd-38" value="S&lt;sub&gt;B&lt;/sub&gt;" style="text;html=1;align=center;verticalAlign=middle;resizable=0;points=[];autosize=1;strokeColor=none;fillColor=none;" vertex="1" parent="1">
          <mxGeometry x="610" y="335" width="40" height="30" as="geometry" />
        </mxCell>
        <mxCell id="8n56hZcwp911cYdUczAd-39" value="1" style="text;html=1;align=center;verticalAlign=middle;resizable=0;points=[];autosize=1;strokeColor=none;fillColor=none;" vertex="1" parent="1">
          <mxGeometry x="375" y="275" width="30" height="30" as="geometry" />
        </mxCell>
        <mxCell id="8n56hZcwp911cYdUczAd-40" value="2" style="text;html=1;align=center;verticalAlign=middle;resizable=0;points=[];autosize=1;strokeColor=none;fillColor=none;" vertex="1" parent="1">
          <mxGeometry x="375" y="235" width="30" height="30" as="geometry" />
        </mxCell>
        <mxCell id="8n56hZcwp911cYdUczAd-41" value="3" style="text;html=1;align=center;verticalAlign=middle;resizable=0;points=[];autosize=1;strokeColor=none;fillColor=none;" vertex="1" parent="1">
          <mxGeometry x="375" y="195" width="30" height="30" as="geometry" />
        </mxCell>
        <mxCell id="8n56hZcwp911cYdUczAd-42" value="4" style="text;html=1;align=center;verticalAlign=middle;resizable=0;points=[];autosize=1;strokeColor=none;fillColor=none;" vertex="1" parent="1">
          <mxGeometry x="375" y="155" width="30" height="30" as="geometry" />
        </mxCell>
        <mxCell id="8n56hZcwp911cYdUczAd-43" value="5" style="text;html=1;align=center;verticalAlign=middle;resizable=0;points=[];autosize=1;strokeColor=none;fillColor=none;" vertex="1" parent="1">
          <mxGeometry x="376" y="115" width="30" height="30" as="geometry" />
        </mxCell>
        <mxCell id="8n56hZcwp911cYdUczAd-44" value="0" style="text;html=1;align=center;verticalAlign=middle;resizable=0;points=[];autosize=1;strokeColor=none;fillColor=none;" vertex="1" parent="1">
          <mxGeometry x="375" y="315" width="30" height="30" as="geometry" />
        </mxCell>
        <mxCell id="8n56hZcwp911cYdUczAd-45" value="A0" style="text;html=1;align=center;verticalAlign=middle;resizable=0;points=[];autosize=1;strokeColor=none;fillColor=none;" vertex="1" parent="1">
          <mxGeometry x="450" y="305" width="40" height="30" as="geometry" />
        </mxCell>
        <mxCell id="8n56hZcwp911cYdUczAd-46" value="B0" style="text;html=1;align=center;verticalAlign=middle;resizable=0;points=[];autosize=1;strokeColor=none;fillColor=none;" vertex="1" parent="1">
          <mxGeometry x="610" y="305" width="40" height="30" as="geometry" />
        </mxCell>
        <mxCell id="8n56hZcwp911cYdUczAd-47" value="" style="endArrow=open;endFill=1;endSize=12;html=1;rounded=0;" edge="1" parent="1">
          <mxGeometry width="160" relative="1" as="geometry">
            <mxPoint x="410" y="130" as="sourcePoint" />
            <mxPoint x="410" y="90" as="targetPoint" />
          </mxGeometry>
        </mxCell>
        <mxCell id="8n56hZcwp911cYdUczAd-48" value="timestamp" style="text;html=1;align=center;verticalAlign=middle;resizable=0;points=[];autosize=1;strokeColor=none;fillColor=none;" vertex="1" parent="1">
          <mxGeometry x="330" y="75" width="80" height="30" as="geometry" />
        </mxCell>
        <mxCell id="8n56hZcwp911cYdUczAd-49" value="" style="rounded=0;whiteSpace=wrap;html=1;fillColor=#e1d5e7;strokeColor=#000000;" vertex="1" parent="1">
          <mxGeometry x="650" y="130" width="40" height="80" as="geometry" />
        </mxCell>
        <mxCell id="8n56hZcwp911cYdUczAd-50" value="B1" style="text;html=1;align=center;verticalAlign=middle;resizable=0;points=[];autosize=1;strokeColor=none;fillColor=none;" vertex="1" parent="1">
          <mxGeometry x="650" y="185" width="40" height="30" as="geometry" />
        </mxCell>
        <mxCell id="8n56hZcwp911cYdUczAd-51" value="" style="rounded=0;whiteSpace=wrap;html=1;fillColor=#f8cecc;strokeColor=#000000;" vertex="1" parent="1">
          <mxGeometry x="690" y="110" width="40" height="20" as="geometry" />
        </mxCell>
        <mxCell id="8n56hZcwp911cYdUczAd-52" value="" style="rounded=0;whiteSpace=wrap;html=1;dashed=1;fillColor=#f8cecc;strokeColor=#000000;" vertex="1" parent="1">
          <mxGeometry x="690" y="70" width="40" height="40" as="geometry" />
        </mxCell>
        <mxCell id="8n56hZcwp911cYdUczAd-53" value="" style="rounded=0;whiteSpace=wrap;html=1;strokeColor=none;fillColor=#f8cecc;" vertex="1" parent="1">
          <mxGeometry x="690" y="62.5" width="40" height="55" as="geometry" />
        </mxCell>
        <mxCell id="8n56hZcwp911cYdUczAd-54" value="B2" style="text;html=1;align=center;verticalAlign=middle;resizable=0;points=[];autosize=1;strokeColor=none;fillColor=none;" vertex="1" parent="1">
          <mxGeometry x="690" y="105" width="40" height="30" as="geometry" />
        </mxCell>
        <mxCell id="8n56hZcwp911cYdUczAd-55" value="" style="rounded=0;whiteSpace=wrap;html=1;fillStyle=solid;fillColor=#f8cecc;strokeColor=none;" vertex="1" parent="1">
          <mxGeometry x="690" y="130" width="40" height="110" as="geometry" />
        </mxCell>
        <mxCell id="8n56hZcwp911cYdUczAd-56" value="" style="rounded=0;whiteSpace=wrap;html=1;fillStyle=dashed;fillColor=#000000;" vertex="1" parent="1">
          <mxGeometry x="690" y="130" width="40" height="110" as="geometry" />
        </mxCell>
        <mxCell id="8n56hZcwp911cYdUczAd-57" value="" style="endArrow=none;dashed=1;html=1;rounded=0;strokeColor=#CC0000;strokeWidth=2;" edge="1" parent="1">
          <mxGeometry width="50" height="50" relative="1" as="geometry">
            <mxPoint x="110" y="329" as="sourcePoint" />
            <mxPoint x="310" y="329" as="targetPoint" />
          </mxGeometry>
        </mxCell>
        <mxCell id="8n56hZcwp911cYdUczAd-58" value="" style="endArrow=none;dashed=1;html=1;rounded=0;strokeColor=#CC0000;strokeWidth=2;" edge="1" parent="1">
          <mxGeometry width="50" height="50" relative="1" as="geometry">
            <mxPoint x="410" y="329" as="sourcePoint" />
            <mxPoint x="810" y="329" as="targetPoint" />
          </mxGeometry>
        </mxCell>
        <mxCell id="8n56hZcwp911cYdUczAd-59" value="&lt;font color=&quot;#cc0000&quot;&gt;cl&lt;sub&gt;2&lt;/sub&gt;. gst&lt;/font&gt;" style="text;html=1;align=center;verticalAlign=middle;resizable=0;points=[];autosize=1;strokeColor=none;fillColor=none;" vertex="1" parent="1">
          <mxGeometry x="30" y="315" width="60" height="30" as="geometry" />
        </mxCell>
        <mxCell id="8n56hZcwp911cYdUczAd-60" value="&lt;font color=&quot;#cc0000&quot;&gt;cl&lt;sub&gt;2&lt;/sub&gt;. gst&lt;/font&gt;" style="text;html=1;align=center;verticalAlign=middle;resizable=0;points=[];autosize=1;strokeColor=none;fillColor=none;" vertex="1" parent="1">
          <mxGeometry x="30" y="195" width="60" height="30" as="geometry" />
        </mxCell>
        <mxCell id="8n56hZcwp911cYdUczAd-61" value="&lt;font color=&quot;#cc0000&quot;&gt;cl&lt;sub&gt;2&lt;/sub&gt;. gst&lt;/font&gt;" style="text;html=1;align=center;verticalAlign=middle;resizable=0;points=[];autosize=1;strokeColor=none;fillColor=none;" vertex="1" parent="1">
          <mxGeometry x="30" y="115" width="60" height="30" as="geometry" />
        </mxCell>
        <mxCell id="8n56hZcwp911cYdUczAd-62" value="" style="rounded=0;whiteSpace=wrap;html=1;strokeColor=none;fillColor=#e1d5e7;" vertex="1" parent="1">
          <mxGeometry x="150" y="100" width="40" height="55" as="geometry" />
        </mxCell>
        <mxCell id="8n56hZcwp911cYdUczAd-63" value="" style="endArrow=none;dashed=1;html=1;rounded=0;strokeColor=#CC0000;strokeWidth=2;" edge="1" parent="1">
          <mxGeometry width="50" height="50" relative="1" as="geometry">
            <mxPoint x="110" y="129" as="sourcePoint" />
            <mxPoint x="310" y="130" as="targetPoint" />
          </mxGeometry>
        </mxCell>
        <mxCell id="8n56hZcwp911cYdUczAd-64" value="" style="rounded=0;whiteSpace=wrap;html=1;dashed=1;fillColor=#dae8fc;strokeColor=#000000;" vertex="1" parent="1">
          <mxGeometry x="490" y="110" width="40" height="40" as="geometry" />
        </mxCell>
        <mxCell id="8n56hZcwp911cYdUczAd-65" value="" style="rounded=0;whiteSpace=wrap;html=1;fillColor=#e1d5e7;strokeColor=#000000;" vertex="1" parent="1">
          <mxGeometry x="490" y="150" width="40" height="60" as="geometry" />
        </mxCell>
        <mxCell id="8n56hZcwp911cYdUczAd-66" value="A1" style="text;html=1;align=center;verticalAlign=middle;resizable=0;points=[];autosize=1;strokeColor=none;fillColor=none;" vertex="1" parent="1">
          <mxGeometry x="490" y="185" width="40" height="30" as="geometry" />
        </mxCell>
        <mxCell id="8n56hZcwp911cYdUczAd-67" value="" style="rounded=0;whiteSpace=wrap;html=1;strokeColor=none;fillColor=#e1d5e7;" vertex="1" parent="1">
          <mxGeometry x="490" y="100" width="40" height="55" as="geometry" />
        </mxCell>
        <mxCell id="8n56hZcwp911cYdUczAd-68" value="" style="endArrow=none;dashed=1;html=1;rounded=0;strokeColor=#CC0000;strokeWidth=2;" edge="1" parent="1">
          <mxGeometry width="50" height="50" relative="1" as="geometry">
            <mxPoint x="410" y="130" as="sourcePoint" />
            <mxPoint x="810" y="130" as="targetPoint" />
          </mxGeometry>
        </mxCell>
        <mxCell id="8n56hZcwp911cYdUczAd-69" value="" style="endArrow=none;dashed=1;html=1;rounded=0;strokeColor=#CC0000;strokeWidth=2;" edge="1" parent="1">
          <mxGeometry width="50" height="50" relative="1" as="geometry">
            <mxPoint x="410" y="210" as="sourcePoint" />
            <mxPoint x="810" y="210" as="targetPoint" />
          </mxGeometry>
        </mxCell>
        <mxCell id="8n56hZcwp911cYdUczAd-70" value="&lt;font color=&quot;#6600cc&quot;&gt;&lt;span style=&quot;font-size: 13px;&quot;&gt;v_writer = cl&lt;/span&gt;&lt;sub style=&quot;&quot;&gt;1&lt;/sub&gt;&lt;/font&gt;" style="text;html=1;align=center;verticalAlign=middle;resizable=0;points=[];autosize=1;strokeColor=none;fillColor=none;fontSize=8;fontColor=#000000;" vertex="1" parent="1">
          <mxGeometry x="160" y="145" width="100" height="30" as="geometry" />
        </mxCell>
        <mxCell id="8n56hZcwp911cYdUczAd-71" value="&lt;font color=&quot;#cc0000&quot;&gt;&lt;span style=&quot;font-size: 13px;&quot;&gt;v_writer = cl&lt;/span&gt;&lt;span style=&quot;font-size: 6.66667px;&quot;&gt;2&lt;/span&gt;&lt;/font&gt;" style="text;html=1;align=center;verticalAlign=middle;resizable=0;points=[];autosize=1;strokeColor=none;fillColor=none;fontSize=8;fontColor=#000000;" vertex="1" parent="1">
          <mxGeometry x="160" y="70" width="100" height="30" as="geometry" />
        </mxCell>
        <mxCell id="8n56hZcwp911cYdUczAd-72" value="" style="endArrow=none;html=1;rounded=0;strokeColor=#CC0000;strokeWidth=1;entryX=0.75;entryY=1;entryDx=0;entryDy=0;" edge="1" parent="1">
          <mxGeometry width="50" height="50" relative="1" as="geometry">
            <mxPoint x="240" y="126" as="sourcePoint" />
            <mxPoint x="260" y="115" as="targetPoint" />
          </mxGeometry>
        </mxCell>
        <mxCell id="8n56hZcwp911cYdUczAd-73" value="" style="endArrow=none;html=1;rounded=0;strokeColor=#CC0000;strokeWidth=1;exitX=0.25;exitY=1;exitDx=0;exitDy=0;" edge="1" parent="1">
          <mxGeometry width="50" height="50" relative="1" as="geometry">
            <mxPoint x="240" y="115" as="sourcePoint" />
            <mxPoint x="260" y="126" as="targetPoint" />
          </mxGeometry>
        </mxCell>
        <mxCell id="8n56hZcwp911cYdUczAd-74" value="" style="endArrow=classic;html=1;rounded=0;strokeColor=#CC0000;strokeWidth=1;" edge="1" parent="1">
          <mxGeometry width="50" height="50" relative="1" as="geometry">
            <mxPoint x="262" y="119.93000000000006" as="sourcePoint" />
            <mxPoint x="282" y="119.93000000000006" as="targetPoint" />
          </mxGeometry>
        </mxCell>
        <mxCell id="8n56hZcwp911cYdUczAd-75" value="" style="endArrow=none;html=1;rounded=0;strokeColor=#CC0000;strokeWidth=1;entryX=0.75;entryY=1;entryDx=0;entryDy=0;" edge="1" parent="1">
          <mxGeometry width="50" height="50" relative="1" as="geometry">
            <mxPoint x="240" y="206" as="sourcePoint" />
            <mxPoint x="260" y="195" as="targetPoint" />
          </mxGeometry>
        </mxCell>
        <mxCell id="8n56hZcwp911cYdUczAd-76" value="" style="endArrow=none;html=1;rounded=0;strokeColor=#CC0000;strokeWidth=1;exitX=0.25;exitY=1;exitDx=0;exitDy=0;" edge="1" parent="1">
          <mxGeometry width="50" height="50" relative="1" as="geometry">
            <mxPoint x="240" y="195" as="sourcePoint" />
            <mxPoint x="260" y="206" as="targetPoint" />
          </mxGeometry>
        </mxCell>
        <mxCell id="8n56hZcwp911cYdUczAd-77" value="" style="endArrow=classic;html=1;rounded=0;strokeColor=#CC0000;strokeWidth=1;" edge="1" parent="1">
          <mxGeometry width="50" height="50" relative="1" as="geometry">
            <mxPoint x="262" y="199.93000000000006" as="sourcePoint" />
            <mxPoint x="282" y="199.93000000000006" as="targetPoint" />
          </mxGeometry>
        </mxCell>
        <mxCell id="8n56hZcwp911cYdUczAd-78" value="&lt;font color=&quot;#cc0000&quot;&gt;&amp;nbsp;B1&lt;/font&gt;" style="text;html=1;align=center;verticalAlign=middle;resizable=0;points=[];autosize=1;strokeColor=none;fillColor=none;" vertex="1" parent="1">
          <mxGeometry x="730" y="105" width="40" height="30" as="geometry" />
        </mxCell>
        <mxCell id="8n56hZcwp911cYdUczAd-79" value="&lt;font color=&quot;#cc0000&quot;&gt;&amp;nbsp;B2&lt;/font&gt;" style="text;html=1;align=center;verticalAlign=middle;resizable=0;points=[];autosize=1;strokeColor=none;fillColor=none;" vertex="1" parent="1">
          <mxGeometry x="730" y="185" width="40" height="30" as="geometry" />
        </mxCell>
        <mxCell id="8n56hZcwp911cYdUczAd-80" value="" style="endArrow=none;html=1;rounded=0;strokeColor=#CC0000;strokeWidth=1;entryX=0.75;entryY=1;entryDx=0;entryDy=0;" edge="1" parent="1">
          <mxGeometry width="50" height="50" relative="1" as="geometry">
            <mxPoint x="700" y="126" as="sourcePoint" />
            <mxPoint x="720" y="115" as="targetPoint" />
          </mxGeometry>
        </mxCell>
        <mxCell id="8n56hZcwp911cYdUczAd-81" value="" style="endArrow=none;html=1;rounded=0;strokeColor=#CC0000;strokeWidth=1;exitX=0.25;exitY=1;exitDx=0;exitDy=0;" edge="1" parent="1">
          <mxGeometry width="50" height="50" relative="1" as="geometry">
            <mxPoint x="700" y="115" as="sourcePoint" />
            <mxPoint x="720" y="126" as="targetPoint" />
          </mxGeometry>
        </mxCell>
        <mxCell id="8n56hZcwp911cYdUczAd-82" value="" style="endArrow=classic;html=1;rounded=0;strokeColor=#CC0000;strokeWidth=1;" edge="1" parent="1">
          <mxGeometry width="50" height="50" relative="1" as="geometry">
            <mxPoint x="722" y="119.93000000000006" as="sourcePoint" />
            <mxPoint x="742" y="119.93000000000006" as="targetPoint" />
          </mxGeometry>
        </mxCell>
        <mxCell id="8n56hZcwp911cYdUczAd-83" value="" style="endArrow=none;html=1;rounded=0;strokeColor=#CC0000;strokeWidth=1;entryX=0.75;entryY=1;entryDx=0;entryDy=0;" edge="1" parent="1">
          <mxGeometry width="50" height="50" relative="1" as="geometry">
            <mxPoint x="660" y="205.5" as="sourcePoint" />
            <mxPoint x="680" y="194.5" as="targetPoint" />
          </mxGeometry>
        </mxCell>
        <mxCell id="8n56hZcwp911cYdUczAd-84" value="" style="endArrow=none;html=1;rounded=0;strokeColor=#CC0000;strokeWidth=1;exitX=0.25;exitY=1;exitDx=0;exitDy=0;" edge="1" parent="1">
          <mxGeometry width="50" height="50" relative="1" as="geometry">
            <mxPoint x="660" y="194.5" as="sourcePoint" />
            <mxPoint x="680" y="205.5" as="targetPoint" />
          </mxGeometry>
        </mxCell>
        <mxCell id="8n56hZcwp911cYdUczAd-85" value="" style="endArrow=classic;html=1;rounded=0;strokeColor=#CC0000;strokeWidth=1;" edge="1" parent="1">
          <mxGeometry width="50" height="50" relative="1" as="geometry">
            <mxPoint x="682" y="199.43000000000006" as="sourcePoint" />
            <mxPoint x="742" y="200" as="targetPoint" />
          </mxGeometry>
        </mxCell>
        <mxCell id="8n56hZcwp911cYdUczAd-86" value="&lt;font color=&quot;#cc0000&quot;&gt;&amp;nbsp;B2&lt;/font&gt;" style="text;html=1;align=center;verticalAlign=middle;resizable=0;points=[];autosize=1;strokeColor=none;fillColor=none;" vertex="1" parent="1">
          <mxGeometry x="270" y="305" width="40" height="30" as="geometry" />
        </mxCell>
        <mxCell id="8n56hZcwp911cYdUczAd-87" value="" style="endArrow=none;html=1;rounded=0;strokeColor=#CC0000;strokeWidth=1;entryX=0.75;entryY=1;entryDx=0;entryDy=0;" edge="1" parent="1">
          <mxGeometry width="50" height="50" relative="1" as="geometry">
            <mxPoint x="240" y="326" as="sourcePoint" />
            <mxPoint x="260" y="315" as="targetPoint" />
          </mxGeometry>
        </mxCell>
        <mxCell id="8n56hZcwp911cYdUczAd-88" value="" style="endArrow=none;html=1;rounded=0;strokeColor=#CC0000;strokeWidth=1;exitX=0.25;exitY=1;exitDx=0;exitDy=0;" edge="1" parent="1">
          <mxGeometry width="50" height="50" relative="1" as="geometry">
            <mxPoint x="240" y="315" as="sourcePoint" />
            <mxPoint x="260" y="326" as="targetPoint" />
          </mxGeometry>
        </mxCell>
        <mxCell id="8n56hZcwp911cYdUczAd-89" value="" style="endArrow=classic;html=1;rounded=0;strokeColor=#CC0000;strokeWidth=1;" edge="1" parent="1">
          <mxGeometry width="50" height="50" relative="1" as="geometry">
            <mxPoint x="262" y="319.93000000000006" as="sourcePoint" />
            <mxPoint x="282" y="319.93000000000006" as="targetPoint" />
          </mxGeometry>
        </mxCell>
        <mxCell id="8n56hZcwp911cYdUczAd-90" value="&lt;font color=&quot;#cc0000&quot;&gt;&amp;nbsp;B2&lt;/font&gt;" style="text;html=1;align=center;verticalAlign=middle;resizable=0;points=[];autosize=1;strokeColor=none;fillColor=none;" vertex="1" parent="1">
          <mxGeometry x="730" y="305" width="40" height="30" as="geometry" />
        </mxCell>
        <mxCell id="8n56hZcwp911cYdUczAd-91" value="" style="endArrow=none;html=1;rounded=0;strokeColor=#CC0000;strokeWidth=1;entryX=0.75;entryY=1;entryDx=0;entryDy=0;" edge="1" parent="1">
          <mxGeometry width="50" height="50" relative="1" as="geometry">
            <mxPoint x="620" y="326" as="sourcePoint" />
            <mxPoint x="640" y="315" as="targetPoint" />
          </mxGeometry>
        </mxCell>
        <mxCell id="8n56hZcwp911cYdUczAd-92" value="" style="endArrow=none;html=1;rounded=0;strokeColor=#CC0000;strokeWidth=1;exitX=0.25;exitY=1;exitDx=0;exitDy=0;" edge="1" parent="1">
          <mxGeometry width="50" height="50" relative="1" as="geometry">
            <mxPoint x="620" y="315" as="sourcePoint" />
            <mxPoint x="640" y="326" as="targetPoint" />
          </mxGeometry>
        </mxCell>
        <mxCell id="8n56hZcwp911cYdUczAd-93" value="" style="endArrow=classic;html=1;rounded=0;strokeColor=#CC0000;strokeWidth=1;" edge="1" parent="1">
          <mxGeometry width="50" height="50" relative="1" as="geometry">
            <mxPoint x="642" y="319.93000000000006" as="sourcePoint" />
            <mxPoint x="742" y="319.93000000000006" as="targetPoint" />
          </mxGeometry>
        </mxCell>
      </root>
    </mxGraphModel>
  </diagram>
  <diagram id="VvAT4I-ogZKiiSLUqJSE" name="example2">
    <mxGraphModel dx="392" dy="548" grid="1" gridSize="10" guides="1" tooltips="1" connect="1" arrows="1" fold="1" page="1" pageScale="1" pageWidth="850" pageHeight="1100" math="0" shadow="0">
      <root>
        <mxCell id="0" />
        <mxCell id="1" parent="0" />
        <mxCell id="zmetgfcwi3zzewHvwpAU-1" value="&lt;font color=&quot;#cc0000&quot;&gt;&amp;nbsp;B2&lt;/font&gt;" style="text;html=1;align=center;verticalAlign=middle;resizable=0;points=[];autosize=1;strokeColor=none;fillColor=none;" vertex="1" parent="1">
          <mxGeometry x="270" y="185" width="40" height="30" as="geometry" />
        </mxCell>
        <mxCell id="zmetgfcwi3zzewHvwpAU-2" value="" style="endArrow=none;html=1;rounded=0;" edge="1" parent="1">
          <mxGeometry width="50" height="50" relative="1" as="geometry">
            <mxPoint x="110" y="330" as="sourcePoint" />
            <mxPoint x="110" y="130" as="targetPoint" />
          </mxGeometry>
        </mxCell>
        <mxCell id="zmetgfcwi3zzewHvwpAU-3" value="" style="endArrow=none;html=1;rounded=0;" edge="1" parent="1">
          <mxGeometry width="50" height="50" relative="1" as="geometry">
            <mxPoint x="110" y="330" as="sourcePoint" />
            <mxPoint x="310" y="330" as="targetPoint" />
          </mxGeometry>
        </mxCell>
        <mxCell id="zmetgfcwi3zzewHvwpAU-4" value="" style="rounded=0;whiteSpace=wrap;html=1;" vertex="1" parent="1">
          <mxGeometry x="150" y="210" width="40" height="120" as="geometry" />
        </mxCell>
        <mxCell id="zmetgfcwi3zzewHvwpAU-5" value="" style="rounded=0;whiteSpace=wrap;html=1;" vertex="1" parent="1">
          <mxGeometry x="230" y="210" width="40" height="120" as="geometry" />
        </mxCell>
        <mxCell id="zmetgfcwi3zzewHvwpAU-6" value="S&lt;sub&gt;A&lt;/sub&gt;" style="text;html=1;align=center;verticalAlign=middle;resizable=0;points=[];autosize=1;strokeColor=none;fillColor=none;" vertex="1" parent="1">
          <mxGeometry x="150" y="335" width="40" height="30" as="geometry" />
        </mxCell>
        <mxCell id="zmetgfcwi3zzewHvwpAU-7" value="S&lt;sub&gt;B&lt;/sub&gt;" style="text;html=1;align=center;verticalAlign=middle;resizable=0;points=[];autosize=1;strokeColor=none;fillColor=none;" vertex="1" parent="1">
          <mxGeometry x="230" y="335" width="40" height="30" as="geometry" />
        </mxCell>
        <mxCell id="zmetgfcwi3zzewHvwpAU-8" value="1" style="text;html=1;align=center;verticalAlign=middle;resizable=0;points=[];autosize=1;strokeColor=none;fillColor=none;" vertex="1" parent="1">
          <mxGeometry x="75" y="275" width="30" height="30" as="geometry" />
        </mxCell>
        <mxCell id="zmetgfcwi3zzewHvwpAU-9" value="2" style="text;html=1;align=center;verticalAlign=middle;resizable=0;points=[];autosize=1;strokeColor=none;fillColor=none;" vertex="1" parent="1">
          <mxGeometry x="75" y="235" width="30" height="30" as="geometry" />
        </mxCell>
        <mxCell id="zmetgfcwi3zzewHvwpAU-10" value="3" style="text;html=1;align=center;verticalAlign=middle;resizable=0;points=[];autosize=1;strokeColor=none;fillColor=none;" vertex="1" parent="1">
          <mxGeometry x="75" y="195" width="30" height="30" as="geometry" />
        </mxCell>
        <mxCell id="zmetgfcwi3zzewHvwpAU-11" value="4" style="text;html=1;align=center;verticalAlign=middle;resizable=0;points=[];autosize=1;strokeColor=none;fillColor=none;" vertex="1" parent="1">
          <mxGeometry x="75" y="155" width="30" height="30" as="geometry" />
        </mxCell>
        <mxCell id="zmetgfcwi3zzewHvwpAU-12" value="5" style="text;html=1;align=center;verticalAlign=middle;resizable=0;points=[];autosize=1;strokeColor=none;fillColor=none;" vertex="1" parent="1">
          <mxGeometry x="76" y="115" width="30" height="30" as="geometry" />
        </mxCell>
        <mxCell id="zmetgfcwi3zzewHvwpAU-13" value="0" style="text;html=1;align=center;verticalAlign=middle;resizable=0;points=[];autosize=1;strokeColor=none;fillColor=none;" vertex="1" parent="1">
          <mxGeometry x="75" y="315" width="30" height="30" as="geometry" />
        </mxCell>
        <mxCell id="zmetgfcwi3zzewHvwpAU-14" value="A0" style="text;html=1;align=center;verticalAlign=middle;resizable=0;points=[];autosize=1;strokeColor=none;fillColor=none;" vertex="1" parent="1">
          <mxGeometry x="150" y="305" width="40" height="30" as="geometry" />
        </mxCell>
        <mxCell id="zmetgfcwi3zzewHvwpAU-15" value="B0" style="text;html=1;align=center;verticalAlign=middle;resizable=0;points=[];autosize=1;strokeColor=none;fillColor=none;" vertex="1" parent="1">
          <mxGeometry x="230" y="305" width="40" height="30" as="geometry" />
        </mxCell>
        <mxCell id="zmetgfcwi3zzewHvwpAU-16" value="" style="endArrow=open;endFill=1;endSize=12;html=1;rounded=0;" edge="1" parent="1">
          <mxGeometry width="160" relative="1" as="geometry">
            <mxPoint x="110" y="130" as="sourcePoint" />
            <mxPoint x="110" y="90" as="targetPoint" />
          </mxGeometry>
        </mxCell>
        <mxCell id="zmetgfcwi3zzewHvwpAU-17" value="timestamp" style="text;html=1;align=center;verticalAlign=middle;resizable=0;points=[];autosize=1;strokeColor=none;fillColor=none;" vertex="1" parent="1">
          <mxGeometry x="30" y="75" width="80" height="30" as="geometry" />
        </mxCell>
        <mxCell id="zmetgfcwi3zzewHvwpAU-18" value="" style="rounded=0;whiteSpace=wrap;html=1;fillColor=#e1d5e7;strokeColor=#000000;" vertex="1" parent="1">
          <mxGeometry x="230" y="130" width="40" height="80" as="geometry" />
        </mxCell>
        <mxCell id="zmetgfcwi3zzewHvwpAU-19" value="B1" style="text;html=1;align=center;verticalAlign=middle;resizable=0;points=[];autosize=1;strokeColor=none;fillColor=none;" vertex="1" parent="1">
          <mxGeometry x="230" y="185" width="40" height="30" as="geometry" />
        </mxCell>
        <mxCell id="zmetgfcwi3zzewHvwpAU-20" value="" style="rounded=0;whiteSpace=wrap;html=1;fillColor=#f8cecc;strokeColor=#000000;" vertex="1" parent="1">
          <mxGeometry x="230" y="110" width="40" height="20" as="geometry" />
        </mxCell>
        <mxCell id="zmetgfcwi3zzewHvwpAU-21" value="" style="rounded=0;whiteSpace=wrap;html=1;dashed=1;fillColor=#dae8fc;strokeColor=#000000;" vertex="1" parent="1">
          <mxGeometry x="150" y="110" width="40" height="40" as="geometry" />
        </mxCell>
        <mxCell id="zmetgfcwi3zzewHvwpAU-22" value="" style="rounded=0;whiteSpace=wrap;html=1;dashed=1;fillColor=#f8cecc;strokeColor=#000000;" vertex="1" parent="1">
          <mxGeometry x="230" y="70" width="40" height="40" as="geometry" />
        </mxCell>
        <mxCell id="zmetgfcwi3zzewHvwpAU-23" value="" style="rounded=0;whiteSpace=wrap;html=1;strokeColor=none;fillColor=#f8cecc;" vertex="1" parent="1">
          <mxGeometry x="230" y="62.5" width="40" height="55" as="geometry" />
        </mxCell>
        <mxCell id="zmetgfcwi3zzewHvwpAU-24" value="" style="rounded=0;whiteSpace=wrap;html=1;fillColor=#e1d5e7;strokeColor=#000000;" vertex="1" parent="1">
          <mxGeometry x="150" y="150" width="40" height="60" as="geometry" />
        </mxCell>
        <mxCell id="zmetgfcwi3zzewHvwpAU-25" value="A1" style="text;html=1;align=center;verticalAlign=middle;resizable=0;points=[];autosize=1;strokeColor=none;fillColor=none;" vertex="1" parent="1">
          <mxGeometry x="150" y="185" width="40" height="30" as="geometry" />
        </mxCell>
        <mxCell id="zmetgfcwi3zzewHvwpAU-26" value="" style="endArrow=none;dashed=1;html=1;rounded=0;strokeColor=#CC0000;strokeWidth=2;" edge="1" parent="1">
          <mxGeometry width="50" height="50" relative="1" as="geometry">
            <mxPoint x="110" y="210" as="sourcePoint" />
            <mxPoint x="310" y="210" as="targetPoint" />
          </mxGeometry>
        </mxCell>
        <mxCell id="zmetgfcwi3zzewHvwpAU-27" value="B2" style="text;html=1;align=center;verticalAlign=middle;resizable=0;points=[];autosize=1;strokeColor=none;fillColor=none;" vertex="1" parent="1">
          <mxGeometry x="230" y="105" width="40" height="30" as="geometry" />
        </mxCell>
        <mxCell id="zmetgfcwi3zzewHvwpAU-28" value="" style="endArrow=none;dashed=1;html=1;rounded=0;strokeColor=#CC0000;strokeWidth=2;" edge="1" parent="1">
          <mxGeometry width="50" height="50" relative="1" as="geometry">
            <mxPoint x="110" y="329" as="sourcePoint" />
            <mxPoint x="310" y="329" as="targetPoint" />
          </mxGeometry>
        </mxCell>
        <mxCell id="zmetgfcwi3zzewHvwpAU-29" value="&lt;font color=&quot;#cc0000&quot;&gt;cl&lt;sub&gt;2&lt;/sub&gt;. gst&lt;/font&gt;" style="text;html=1;align=center;verticalAlign=middle;resizable=0;points=[];autosize=1;strokeColor=none;fillColor=none;" vertex="1" parent="1">
          <mxGeometry x="30" y="315" width="60" height="30" as="geometry" />
        </mxCell>
        <mxCell id="zmetgfcwi3zzewHvwpAU-30" value="&lt;font color=&quot;#cc0000&quot;&gt;cl&lt;sub&gt;2&lt;/sub&gt;. gst&lt;/font&gt;" style="text;html=1;align=center;verticalAlign=middle;resizable=0;points=[];autosize=1;strokeColor=none;fillColor=none;" vertex="1" parent="1">
          <mxGeometry x="30" y="195" width="60" height="30" as="geometry" />
        </mxCell>
        <mxCell id="zmetgfcwi3zzewHvwpAU-31" value="&lt;font color=&quot;#cc0000&quot;&gt;cl&lt;sub&gt;2&lt;/sub&gt;. gst&lt;/font&gt;" style="text;html=1;align=center;verticalAlign=middle;resizable=0;points=[];autosize=1;strokeColor=none;fillColor=none;" vertex="1" parent="1">
          <mxGeometry x="30" y="115" width="60" height="30" as="geometry" />
        </mxCell>
        <mxCell id="zmetgfcwi3zzewHvwpAU-32" value="" style="rounded=0;whiteSpace=wrap;html=1;strokeColor=none;fillColor=#e1d5e7;" vertex="1" parent="1">
          <mxGeometry x="150" y="100" width="40" height="55" as="geometry" />
        </mxCell>
        <mxCell id="zmetgfcwi3zzewHvwpAU-33" value="" style="endArrow=none;dashed=1;html=1;rounded=0;strokeColor=#CC0000;strokeWidth=2;" edge="1" parent="1">
          <mxGeometry width="50" height="50" relative="1" as="geometry">
            <mxPoint x="110" y="129" as="sourcePoint" />
            <mxPoint x="310" y="130" as="targetPoint" />
          </mxGeometry>
        </mxCell>
        <mxCell id="zmetgfcwi3zzewHvwpAU-34" value="&lt;font color=&quot;#6600cc&quot;&gt;&lt;span style=&quot;font-size: 13px;&quot;&gt;v_writer = cl&lt;/span&gt;&lt;sub style=&quot;&quot;&gt;1&lt;/sub&gt;&lt;/font&gt;" style="text;html=1;align=center;verticalAlign=middle;resizable=0;points=[];autosize=1;strokeColor=none;fillColor=none;fontSize=8;fontColor=#000000;" vertex="1" parent="1">
          <mxGeometry x="160" y="145" width="100" height="30" as="geometry" />
        </mxCell>
        <mxCell id="zmetgfcwi3zzewHvwpAU-35" value="&lt;font color=&quot;#cc0000&quot;&gt;&lt;span style=&quot;font-size: 13px;&quot;&gt;v_writer = cl&lt;/span&gt;&lt;span style=&quot;font-size: 6.66667px;&quot;&gt;2&lt;/span&gt;&lt;/font&gt;" style="text;html=1;align=center;verticalAlign=middle;resizable=0;points=[];autosize=1;strokeColor=none;fillColor=none;fontSize=8;fontColor=#000000;" vertex="1" parent="1">
          <mxGeometry x="160" y="70" width="100" height="30" as="geometry" />
        </mxCell>
        <mxCell id="zmetgfcwi3zzewHvwpAU-36" value="" style="endArrow=none;html=1;rounded=0;strokeColor=#CC0000;strokeWidth=1;entryX=0.75;entryY=1;entryDx=0;entryDy=0;" edge="1" parent="1">
          <mxGeometry width="50" height="50" relative="1" as="geometry">
            <mxPoint x="240" y="206" as="sourcePoint" />
            <mxPoint x="260" y="195" as="targetPoint" />
          </mxGeometry>
        </mxCell>
        <mxCell id="zmetgfcwi3zzewHvwpAU-37" value="" style="endArrow=none;html=1;rounded=0;strokeColor=#CC0000;strokeWidth=1;exitX=0.25;exitY=1;exitDx=0;exitDy=0;" edge="1" parent="1">
          <mxGeometry width="50" height="50" relative="1" as="geometry">
            <mxPoint x="240" y="195" as="sourcePoint" />
            <mxPoint x="260" y="206" as="targetPoint" />
          </mxGeometry>
        </mxCell>
        <mxCell id="zmetgfcwi3zzewHvwpAU-38" value="" style="endArrow=classic;html=1;rounded=0;strokeColor=#CC0000;strokeWidth=1;" edge="1" parent="1">
          <mxGeometry width="50" height="50" relative="1" as="geometry">
            <mxPoint x="262" y="199.93000000000006" as="sourcePoint" />
            <mxPoint x="282" y="199.93000000000006" as="targetPoint" />
          </mxGeometry>
        </mxCell>
        <mxCell id="zmetgfcwi3zzewHvwpAU-39" value="&lt;font color=&quot;#cc0000&quot;&gt;&amp;nbsp;B2&lt;/font&gt;" style="text;html=1;align=center;verticalAlign=middle;resizable=0;points=[];autosize=1;strokeColor=none;fillColor=none;" vertex="1" parent="1">
          <mxGeometry x="270" y="305" width="40" height="30" as="geometry" />
        </mxCell>
        <mxCell id="zmetgfcwi3zzewHvwpAU-40" value="" style="endArrow=none;html=1;rounded=0;strokeColor=#CC0000;strokeWidth=1;entryX=0.75;entryY=1;entryDx=0;entryDy=0;" edge="1" parent="1">
          <mxGeometry width="50" height="50" relative="1" as="geometry">
            <mxPoint x="240" y="326" as="sourcePoint" />
            <mxPoint x="260" y="315" as="targetPoint" />
          </mxGeometry>
        </mxCell>
        <mxCell id="zmetgfcwi3zzewHvwpAU-41" value="" style="endArrow=none;html=1;rounded=0;strokeColor=#CC0000;strokeWidth=1;exitX=0.25;exitY=1;exitDx=0;exitDy=0;" edge="1" parent="1">
          <mxGeometry width="50" height="50" relative="1" as="geometry">
            <mxPoint x="240" y="315" as="sourcePoint" />
            <mxPoint x="260" y="326" as="targetPoint" />
          </mxGeometry>
        </mxCell>
        <mxCell id="zmetgfcwi3zzewHvwpAU-42" value="" style="endArrow=classic;html=1;rounded=0;strokeColor=#CC0000;strokeWidth=1;" edge="1" parent="1">
          <mxGeometry width="50" height="50" relative="1" as="geometry">
            <mxPoint x="262" y="319.93000000000006" as="sourcePoint" />
            <mxPoint x="282" y="319.93000000000006" as="targetPoint" />
          </mxGeometry>
        </mxCell>
      </root>
    </mxGraphModel>
  </diagram>
  <diagram id="WIY5XYB_ksl-NNGlrfKb" name="example3">
    <mxGraphModel dx="392" dy="548" grid="1" gridSize="10" guides="1" tooltips="1" connect="1" arrows="1" fold="1" page="1" pageScale="1" pageWidth="850" pageHeight="1100" math="0" shadow="0">
      <root>
        <mxCell id="0" />
        <mxCell id="1" parent="0" />
        <mxCell id="nsgB1uzni1_bhOvbMbDE-1" value="" style="endArrow=none;html=1;rounded=0;" edge="1" parent="1">
          <mxGeometry width="50" height="50" relative="1" as="geometry">
            <mxPoint x="250" y="330" as="sourcePoint" />
            <mxPoint x="450" y="330" as="targetPoint" />
          </mxGeometry>
        </mxCell>
        <mxCell id="nsgB1uzni1_bhOvbMbDE-2" value="" style="rounded=0;whiteSpace=wrap;html=1;fillStyle=solid;fillColor=#e1d5e7;strokeColor=#9673a6;" vertex="1" parent="1">
          <mxGeometry x="345" y="280" width="40" height="30" as="geometry" />
        </mxCell>
        <mxCell id="nsgB1uzni1_bhOvbMbDE-3" value="" style="rounded=0;whiteSpace=wrap;html=1;fillStyle=dashed;fillColor=#000000;" vertex="1" parent="1">
          <mxGeometry x="345" y="280" width="40" height="30" as="geometry" />
        </mxCell>
        <mxCell id="nsgB1uzni1_bhOvbMbDE-4" value="" style="rounded=0;whiteSpace=wrap;html=1;" vertex="1" parent="1">
          <mxGeometry x="305" y="280" width="40" height="50" as="geometry" />
        </mxCell>
        <mxCell id="nsgB1uzni1_bhOvbMbDE-5" value="&lt;i style=&quot;font-family: Georgia;&quot;&gt;x&lt;/i&gt;" style="text;html=1;align=center;verticalAlign=middle;resizable=0;points=[];autosize=1;strokeColor=none;fillColor=none;" vertex="1" parent="1">
          <mxGeometry x="310" y="335" width="30" height="30" as="geometry" />
        </mxCell>
        <mxCell id="nsgB1uzni1_bhOvbMbDE-6" value="&lt;i&gt;&lt;font face=&quot;Georgia&quot;&gt;x&lt;sub&gt;0&lt;/sub&gt;&lt;/font&gt;&lt;/i&gt;" style="text;html=1;align=center;verticalAlign=middle;resizable=0;points=[];autosize=1;strokeColor=none;fillColor=none;" vertex="1" parent="1">
          <mxGeometry x="305" y="305" width="40" height="30" as="geometry" />
        </mxCell>
        <mxCell id="nsgB1uzni1_bhOvbMbDE-7" value="" style="rounded=0;whiteSpace=wrap;html=1;fillColor=#e1d5e7;strokeColor=#000000;" vertex="1" parent="1">
          <mxGeometry x="345" y="200" width="40" height="80" as="geometry" />
        </mxCell>
        <mxCell id="nsgB1uzni1_bhOvbMbDE-8" value="&lt;i style=&quot;font-family: Georgia;&quot;&gt;x&lt;sub&gt;1&lt;/sub&gt;&lt;/i&gt;" style="text;html=1;align=center;verticalAlign=middle;resizable=0;points=[];autosize=1;strokeColor=none;fillColor=none;" vertex="1" parent="1">
          <mxGeometry x="350" y="255" width="30" height="30" as="geometry" />
        </mxCell>
        <mxCell id="nsgB1uzni1_bhOvbMbDE-9" value="" style="rounded=0;whiteSpace=wrap;html=1;fillColor=#f8cecc;strokeColor=#000000;" vertex="1" parent="1">
          <mxGeometry x="385" y="179.5" width="40" height="20" as="geometry" />
        </mxCell>
        <mxCell id="nsgB1uzni1_bhOvbMbDE-10" value="" style="rounded=0;whiteSpace=wrap;html=1;dashed=1;fillColor=#f8cecc;strokeColor=#000000;" vertex="1" parent="1">
          <mxGeometry x="385" y="139.5" width="40" height="40" as="geometry" />
        </mxCell>
        <mxCell id="nsgB1uzni1_bhOvbMbDE-11" value="" style="rounded=0;whiteSpace=wrap;html=1;strokeColor=none;fillColor=#f8cecc;" vertex="1" parent="1">
          <mxGeometry x="385" y="132" width="40" height="55" as="geometry" />
        </mxCell>
        <mxCell id="nsgB1uzni1_bhOvbMbDE-12" value="&lt;i style=&quot;font-family: Georgia;&quot;&gt;x&lt;sub&gt;2&lt;/sub&gt;&lt;/i&gt;" style="text;html=1;align=center;verticalAlign=middle;resizable=0;points=[];autosize=1;strokeColor=none;fillColor=none;" vertex="1" parent="1">
          <mxGeometry x="385" y="174.5" width="40" height="30" as="geometry" />
        </mxCell>
        <mxCell id="nsgB1uzni1_bhOvbMbDE-13" value="" style="rounded=0;whiteSpace=wrap;html=1;fillStyle=solid;fillColor=#f8cecc;strokeColor=none;" vertex="1" parent="1">
          <mxGeometry x="385" y="199.5" width="40" height="100.5" as="geometry" />
        </mxCell>
        <mxCell id="nsgB1uzni1_bhOvbMbDE-14" value="" style="rounded=0;whiteSpace=wrap;html=1;fillStyle=dashed;fillColor=#000000;" vertex="1" parent="1">
          <mxGeometry x="385" y="199.5" width="40" height="100.5" as="geometry" />
        </mxCell>
        <mxCell id="nsgB1uzni1_bhOvbMbDE-15" value="&lt;font color=&quot;#cc0000&quot;&gt;&lt;span style=&quot;font-size: 13px;&quot;&gt;v_writer = &lt;font face=&quot;Georgia&quot;&gt;&lt;i&gt;cl&lt;/i&gt;&lt;/font&gt;&lt;i&gt;&lt;font face=&quot;Georgia&quot;&gt;&lt;sub&gt;2&lt;/sub&gt;&lt;/font&gt;&lt;/i&gt;&lt;/span&gt;&lt;/font&gt;" style="text;html=1;align=center;verticalAlign=middle;resizable=0;points=[];autosize=1;strokeColor=none;fillColor=none;fontSize=8;fontColor=#000000;" vertex="1" parent="1">
          <mxGeometry x="305" y="144.5" width="100" height="30" as="geometry" />
        </mxCell>
        <mxCell id="nsgB1uzni1_bhOvbMbDE-16" value="&lt;font color=&quot;#6600cc&quot;&gt;&lt;span style=&quot;font-size: 13px;&quot;&gt;v_writer = &lt;font face=&quot;Georgia&quot;&gt;&lt;i&gt;cl&lt;/i&gt;&lt;/font&gt;&lt;i&gt;&lt;font face=&quot;Georgia&quot;&gt;&lt;sub&gt;1&lt;/sub&gt;&lt;/font&gt;&lt;/i&gt;&lt;/span&gt;&lt;/font&gt;" style="text;html=1;align=center;verticalAlign=middle;resizable=0;points=[];autosize=1;strokeColor=none;fillColor=none;fontSize=8;fontColor=#000000;" vertex="1" parent="1">
          <mxGeometry x="280" y="222.5" width="100" height="30" as="geometry" />
        </mxCell>
        <mxCell id="nsgB1uzni1_bhOvbMbDE-17" value="&lt;b&gt;v_writer = &lt;/b&gt;&lt;font style=&quot;&quot; face=&quot;Georgia&quot;&gt;&lt;i style=&quot;&quot;&gt;&lt;b&gt;cl&lt;/b&gt;&lt;sub style=&quot;font-weight: bold;&quot;&gt;0&lt;/sub&gt;&lt;/i&gt;&lt;/font&gt;" style="text;html=1;align=center;verticalAlign=middle;resizable=0;points=[];autosize=1;strokeColor=none;fillColor=none;" vertex="1" parent="1">
          <mxGeometry x="240" y="290" width="100" height="30" as="geometry" />
        </mxCell>
        <mxCell id="nsgB1uzni1_bhOvbMbDE-18" value="&lt;font color=&quot;#cc0000&quot; face=&quot;Georgia&quot;&gt;&lt;i&gt;ts&lt;/i&gt;&lt;/font&gt;" style="text;html=1;align=center;verticalAlign=middle;resizable=0;points=[];autosize=1;strokeColor=none;fillColor=none;" vertex="1" parent="1">
          <mxGeometry x="226" y="314" width="30" height="30" as="geometry" />
        </mxCell>
        <mxCell id="nsgB1uzni1_bhOvbMbDE-19" value="" style="endArrow=none;dashed=1;html=1;rounded=0;fontFamily=Georgia;fillColor=#f8cecc;strokeColor=#b85450;strokeWidth=2;" edge="1" parent="1">
          <mxGeometry width="50" height="50" relative="1" as="geometry">
            <mxPoint x="250" y="330" as="sourcePoint" />
            <mxPoint x="450" y="330" as="targetPoint" />
          </mxGeometry>
        </mxCell>
      </root>
    </mxGraphModel>
  </diagram>
  <diagram id="R0kjDFhpHVayzTBiDbq7" name="example4">
    <mxGraphModel dx="392" dy="548" grid="1" gridSize="10" guides="1" tooltips="1" connect="1" arrows="1" fold="1" page="1" pageScale="1" pageWidth="850" pageHeight="1100" math="0" shadow="0">
      <root>
        <mxCell id="0" />
        <mxCell id="1" parent="0" />
        <mxCell id="cRnKnZ_STOiVpHYBfg5U-1" value="" style="endArrow=none;html=1;rounded=0;" edge="1" parent="1">
          <mxGeometry width="50" height="50" relative="1" as="geometry">
            <mxPoint x="250" y="330" as="sourcePoint" />
            <mxPoint x="450" y="330" as="targetPoint" />
          </mxGeometry>
        </mxCell>
        <mxCell id="cRnKnZ_STOiVpHYBfg5U-2" value="" style="rounded=0;whiteSpace=wrap;html=1;fillStyle=solid;fillColor=#e1d5e7;strokeColor=#9673a6;" vertex="1" parent="1">
          <mxGeometry x="345" y="280" width="40" height="30" as="geometry" />
        </mxCell>
        <mxCell id="cRnKnZ_STOiVpHYBfg5U-3" value="" style="rounded=0;whiteSpace=wrap;html=1;fillStyle=dashed;fillColor=#000000;" vertex="1" parent="1">
          <mxGeometry x="345" y="280" width="40" height="30" as="geometry" />
        </mxCell>
        <mxCell id="cRnKnZ_STOiVpHYBfg5U-4" value="" style="rounded=0;whiteSpace=wrap;html=1;" vertex="1" parent="1">
          <mxGeometry x="305" y="280" width="40" height="50" as="geometry" />
        </mxCell>
        <mxCell id="cRnKnZ_STOiVpHYBfg5U-5" value="&lt;i style=&quot;font-family: Georgia;&quot;&gt;x&lt;/i&gt;" style="text;html=1;align=center;verticalAlign=middle;resizable=0;points=[];autosize=1;strokeColor=none;fillColor=none;" vertex="1" parent="1">
          <mxGeometry x="310" y="335" width="30" height="30" as="geometry" />
        </mxCell>
        <mxCell id="cRnKnZ_STOiVpHYBfg5U-6" value="&lt;i&gt;&lt;font face=&quot;Georgia&quot;&gt;x&lt;sub&gt;0&lt;/sub&gt;&lt;/font&gt;&lt;/i&gt;" style="text;html=1;align=center;verticalAlign=middle;resizable=0;points=[];autosize=1;strokeColor=none;fillColor=none;" vertex="1" parent="1">
          <mxGeometry x="305" y="305" width="40" height="30" as="geometry" />
        </mxCell>
        <mxCell id="cRnKnZ_STOiVpHYBfg5U-7" value="" style="rounded=0;whiteSpace=wrap;html=1;fillColor=#e1d5e7;strokeColor=#000000;" vertex="1" parent="1">
          <mxGeometry x="345" y="200" width="40" height="80" as="geometry" />
        </mxCell>
        <mxCell id="cRnKnZ_STOiVpHYBfg5U-8" value="&lt;i style=&quot;font-family: Georgia;&quot;&gt;x&lt;sub&gt;1&lt;/sub&gt;&lt;/i&gt;" style="text;html=1;align=center;verticalAlign=middle;resizable=0;points=[];autosize=1;strokeColor=none;fillColor=none;" vertex="1" parent="1">
          <mxGeometry x="350" y="255" width="30" height="30" as="geometry" />
        </mxCell>
        <mxCell id="cRnKnZ_STOiVpHYBfg5U-9" value="" style="rounded=0;whiteSpace=wrap;html=1;fillColor=#f8cecc;strokeColor=#000000;" vertex="1" parent="1">
          <mxGeometry x="385" y="179.5" width="40" height="20" as="geometry" />
        </mxCell>
        <mxCell id="cRnKnZ_STOiVpHYBfg5U-10" value="" style="rounded=0;whiteSpace=wrap;html=1;dashed=1;fillColor=#f8cecc;strokeColor=#000000;" vertex="1" parent="1">
          <mxGeometry x="385" y="139.5" width="40" height="40" as="geometry" />
        </mxCell>
        <mxCell id="cRnKnZ_STOiVpHYBfg5U-11" value="" style="rounded=0;whiteSpace=wrap;html=1;strokeColor=none;fillColor=#f8cecc;" vertex="1" parent="1">
          <mxGeometry x="385" y="132" width="40" height="55" as="geometry" />
        </mxCell>
        <mxCell id="cRnKnZ_STOiVpHYBfg5U-12" value="&lt;i style=&quot;font-family: Georgia;&quot;&gt;x&lt;sub&gt;2&lt;/sub&gt;&lt;/i&gt;" style="text;html=1;align=center;verticalAlign=middle;resizable=0;points=[];autosize=1;strokeColor=none;fillColor=none;" vertex="1" parent="1">
          <mxGeometry x="385" y="174.5" width="40" height="30" as="geometry" />
        </mxCell>
        <mxCell id="cRnKnZ_STOiVpHYBfg5U-13" value="" style="rounded=0;whiteSpace=wrap;html=1;fillStyle=solid;fillColor=#f8cecc;strokeColor=none;" vertex="1" parent="1">
          <mxGeometry x="385" y="199.5" width="40" height="100.5" as="geometry" />
        </mxCell>
        <mxCell id="cRnKnZ_STOiVpHYBfg5U-14" value="" style="rounded=0;whiteSpace=wrap;html=1;fillStyle=dashed;fillColor=#000000;" vertex="1" parent="1">
          <mxGeometry x="385" y="199.5" width="40" height="100.5" as="geometry" />
        </mxCell>
        <mxCell id="cRnKnZ_STOiVpHYBfg5U-15" value="&lt;font color=&quot;#cc0000&quot;&gt;&lt;span style=&quot;font-size: 13px;&quot;&gt;v_writer = &lt;font face=&quot;Georgia&quot;&gt;&lt;i&gt;cl&lt;/i&gt;&lt;/font&gt;&lt;i&gt;&lt;font face=&quot;Georgia&quot;&gt;&lt;sub&gt;2&lt;/sub&gt;&lt;/font&gt;&lt;/i&gt;&lt;/span&gt;&lt;/font&gt;" style="text;html=1;align=center;verticalAlign=middle;resizable=0;points=[];autosize=1;strokeColor=none;fillColor=none;fontSize=8;fontColor=#000000;" vertex="1" parent="1">
          <mxGeometry x="305" y="144.5" width="100" height="30" as="geometry" />
        </mxCell>
        <mxCell id="cRnKnZ_STOiVpHYBfg5U-16" value="&lt;font color=&quot;#6600cc&quot;&gt;&lt;span style=&quot;font-size: 13px;&quot;&gt;v_writer = &lt;font face=&quot;Georgia&quot;&gt;&lt;i&gt;cl&lt;/i&gt;&lt;/font&gt;&lt;i&gt;&lt;font face=&quot;Georgia&quot;&gt;&lt;sub&gt;1&lt;/sub&gt;&lt;/font&gt;&lt;/i&gt;&lt;/span&gt;&lt;/font&gt;" style="text;html=1;align=center;verticalAlign=middle;resizable=0;points=[];autosize=1;strokeColor=none;fillColor=none;fontSize=8;fontColor=#000000;" vertex="1" parent="1">
          <mxGeometry x="280" y="222.5" width="100" height="30" as="geometry" />
        </mxCell>
        <mxCell id="cRnKnZ_STOiVpHYBfg5U-17" value="&lt;b&gt;v_writer = &lt;/b&gt;&lt;font style=&quot;&quot; face=&quot;Georgia&quot;&gt;&lt;i style=&quot;&quot;&gt;&lt;b&gt;cl&lt;/b&gt;&lt;sub style=&quot;font-weight: bold;&quot;&gt;0&lt;/sub&gt;&lt;/i&gt;&lt;/font&gt;" style="text;html=1;align=center;verticalAlign=middle;resizable=0;points=[];autosize=1;strokeColor=none;fillColor=none;" vertex="1" parent="1">
          <mxGeometry x="240" y="290" width="100" height="30" as="geometry" />
        </mxCell>
        <mxCell id="cRnKnZ_STOiVpHYBfg5U-18" value="&lt;font color=&quot;#cc0000&quot; face=&quot;Georgia&quot;&gt;&lt;i&gt;ts&lt;/i&gt;&lt;/font&gt;" style="text;html=1;align=center;verticalAlign=middle;resizable=0;points=[];autosize=1;strokeColor=none;fillColor=none;" vertex="1" parent="1">
          <mxGeometry x="218" y="174.5" width="30" height="30" as="geometry" />
        </mxCell>
        <mxCell id="cRnKnZ_STOiVpHYBfg5U-19" value="" style="endArrow=none;dashed=1;html=1;rounded=0;fontFamily=Georgia;fillColor=#f8cecc;strokeColor=#b85450;strokeWidth=2;" edge="1" parent="1">
          <mxGeometry width="50" height="50" relative="1" as="geometry">
            <mxPoint x="242" y="190.5" as="sourcePoint" />
            <mxPoint x="442" y="190.5" as="targetPoint" />
          </mxGeometry>
        </mxCell>
      </root>
    </mxGraphModel>
  </diagram>
  <diagram id="nYGCDJTTl6fVrjsxYg8K" name="fractured0">
    <mxGraphModel dx="392" dy="548" grid="1" gridSize="10" guides="1" tooltips="1" connect="1" arrows="1" fold="1" page="1" pageScale="1" pageWidth="850" pageHeight="1100" math="0" shadow="0">
      <root>
        <mxCell id="0" />
        <mxCell id="1" parent="0" />
        <mxCell id="QnwQtkSLFKtIH4xZTRoK-1" value="" style="endArrow=none;html=1;rounded=0;" edge="1" parent="1">
          <mxGeometry width="50" height="50" relative="1" as="geometry">
            <mxPoint x="130" y="330" as="sourcePoint" />
            <mxPoint x="290" y="330" as="targetPoint" />
          </mxGeometry>
        </mxCell>
        <mxCell id="QnwQtkSLFKtIH4xZTRoK-2" value="" style="rounded=0;whiteSpace=wrap;html=1;" vertex="1" parent="1">
          <mxGeometry x="150" y="210" width="40" height="120" as="geometry" />
        </mxCell>
        <mxCell id="QnwQtkSLFKtIH4xZTRoK-3" value="" style="rounded=0;whiteSpace=wrap;html=1;" vertex="1" parent="1">
          <mxGeometry x="230" y="210" width="40" height="120" as="geometry" />
        </mxCell>
        <mxCell id="QnwQtkSLFKtIH4xZTRoK-4" value="&lt;font face=&quot;Georgia&quot;&gt;&lt;i&gt;x&lt;/i&gt;&lt;/font&gt;" style="text;html=1;align=center;verticalAlign=middle;resizable=0;points=[];autosize=1;strokeColor=none;fillColor=none;" vertex="1" parent="1">
          <mxGeometry x="155" y="335" width="30" height="30" as="geometry" />
        </mxCell>
        <mxCell id="QnwQtkSLFKtIH4xZTRoK-5" value="&lt;font face=&quot;Georgia&quot;&gt;&lt;i&gt;y&lt;/i&gt;&lt;/font&gt;" style="text;html=1;align=center;verticalAlign=middle;resizable=0;points=[];autosize=1;strokeColor=none;fillColor=none;" vertex="1" parent="1">
          <mxGeometry x="235" y="335" width="30" height="30" as="geometry" />
        </mxCell>
        <mxCell id="QnwQtkSLFKtIH4xZTRoK-6" value="&lt;i&gt;&lt;font face=&quot;Georgia&quot;&gt;x&lt;sub&gt;0&lt;/sub&gt;&lt;/font&gt;&lt;/i&gt;" style="text;html=1;align=center;verticalAlign=middle;resizable=0;points=[];autosize=1;strokeColor=none;fillColor=none;" vertex="1" parent="1">
          <mxGeometry x="150" y="305" width="40" height="30" as="geometry" />
        </mxCell>
        <mxCell id="QnwQtkSLFKtIH4xZTRoK-7" value="&lt;i&gt;&lt;font face=&quot;Georgia&quot;&gt;y0&lt;/font&gt;&lt;/i&gt;" style="text;html=1;align=center;verticalAlign=middle;resizable=0;points=[];autosize=1;strokeColor=none;fillColor=none;" vertex="1" parent="1">
          <mxGeometry x="230" y="305" width="40" height="30" as="geometry" />
        </mxCell>
        <mxCell id="QnwQtkSLFKtIH4xZTRoK-8" value="" style="rounded=0;whiteSpace=wrap;html=1;fillColor=#e1d5e7;strokeColor=#000000;" vertex="1" parent="1">
          <mxGeometry x="230" y="197.5" width="40" height="80" as="geometry" />
        </mxCell>
        <mxCell id="QnwQtkSLFKtIH4xZTRoK-9" value="&lt;i&gt;&lt;font face=&quot;Georgia&quot;&gt;y&lt;sub&gt;1&lt;/sub&gt;&lt;/font&gt;&lt;/i&gt;" style="text;html=1;align=center;verticalAlign=middle;resizable=0;points=[];autosize=1;strokeColor=none;fillColor=none;" vertex="1" parent="1">
          <mxGeometry x="235" y="252.5" width="30" height="30" as="geometry" />
        </mxCell>
        <mxCell id="QnwQtkSLFKtIH4xZTRoK-10" value="" style="rounded=0;whiteSpace=wrap;html=1;fillColor=#f8cecc;strokeColor=#000000;" vertex="1" parent="1">
          <mxGeometry x="230" y="177.5" width="40" height="20" as="geometry" />
        </mxCell>
        <mxCell id="QnwQtkSLFKtIH4xZTRoK-11" value="" style="rounded=0;whiteSpace=wrap;html=1;dashed=1;fillColor=#dae8fc;strokeColor=#000000;" vertex="1" parent="1">
          <mxGeometry x="150" y="177.5" width="40" height="40" as="geometry" />
        </mxCell>
        <mxCell id="QnwQtkSLFKtIH4xZTRoK-12" value="" style="rounded=0;whiteSpace=wrap;html=1;dashed=1;fillColor=#f8cecc;strokeColor=#000000;" vertex="1" parent="1">
          <mxGeometry x="230" y="137.5" width="40" height="40" as="geometry" />
        </mxCell>
        <mxCell id="QnwQtkSLFKtIH4xZTRoK-13" value="" style="rounded=0;whiteSpace=wrap;html=1;strokeColor=none;fillColor=#f8cecc;" vertex="1" parent="1">
          <mxGeometry x="230" y="130" width="40" height="55" as="geometry" />
        </mxCell>
        <mxCell id="QnwQtkSLFKtIH4xZTRoK-14" value="" style="rounded=0;whiteSpace=wrap;html=1;fillColor=#e1d5e7;strokeColor=#000000;" vertex="1" parent="1">
          <mxGeometry x="150" y="217.5" width="40" height="60" as="geometry" />
        </mxCell>
        <mxCell id="QnwQtkSLFKtIH4xZTRoK-15" value="&lt;font face=&quot;Georgia&quot;&gt;&lt;i&gt;x&lt;sub style=&quot;&quot;&gt;1&lt;/sub&gt;&lt;/i&gt;&lt;/font&gt;" style="text;html=1;align=center;verticalAlign=middle;resizable=0;points=[];autosize=1;strokeColor=none;fillColor=none;" vertex="1" parent="1">
          <mxGeometry x="155" y="252.5" width="30" height="30" as="geometry" />
        </mxCell>
        <mxCell id="QnwQtkSLFKtIH4xZTRoK-16" value="&lt;i&gt;&lt;font face=&quot;Georgia&quot;&gt;y&lt;sub&gt;2&lt;/sub&gt;&lt;/font&gt;&lt;/i&gt;" style="text;html=1;align=center;verticalAlign=middle;resizable=0;points=[];autosize=1;strokeColor=none;fillColor=none;" vertex="1" parent="1">
          <mxGeometry x="230" y="172.5" width="40" height="30" as="geometry" />
        </mxCell>
        <mxCell id="QnwQtkSLFKtIH4xZTRoK-17" value="" style="rounded=0;whiteSpace=wrap;html=1;strokeColor=none;fillColor=#e1d5e7;" vertex="1" parent="1">
          <mxGeometry x="150" y="167.5" width="40" height="55" as="geometry" />
        </mxCell>
        <mxCell id="QnwQtkSLFKtIH4xZTRoK-18" value="&lt;font color=&quot;#6600cc&quot;&gt;&lt;span style=&quot;font-size: 13px;&quot;&gt;v_writer = &lt;i&gt;&lt;font face=&quot;Georgia&quot;&gt;T&lt;sub&gt;1&lt;/sub&gt;&lt;/font&gt;&lt;/i&gt;&lt;/span&gt;&lt;/font&gt;" style="text;html=1;align=center;verticalAlign=middle;resizable=0;points=[];autosize=1;strokeColor=none;fillColor=none;fontSize=8;fontColor=#000000;" vertex="1" parent="1">
          <mxGeometry x="160" y="212.5" width="100" height="30" as="geometry" />
        </mxCell>
        <mxCell id="QnwQtkSLFKtIH4xZTRoK-19" value="&lt;font color=&quot;#cc0000&quot;&gt;&lt;span style=&quot;font-size: 13px;&quot;&gt;v_writer = &lt;i&gt;&lt;font face=&quot;Georgia&quot;&gt;T&lt;sub&gt;2&lt;/sub&gt;&lt;/font&gt;&lt;/i&gt;&lt;/span&gt;&lt;/font&gt;" style="text;html=1;align=center;verticalAlign=middle;resizable=0;points=[];autosize=1;strokeColor=none;fillColor=none;fontSize=8;fontColor=#000000;" vertex="1" parent="1">
          <mxGeometry x="160" y="137.5" width="100" height="30" as="geometry" />
        </mxCell>
        <mxCell id="QnwQtkSLFKtIH4xZTRoK-20" value="&lt;b&gt;v_writer = &lt;font face=&quot;Georgia&quot;&gt;&lt;i&gt;T&lt;sub&gt;0&lt;/sub&gt;&lt;/i&gt;&lt;/font&gt;&lt;/b&gt;" style="text;html=1;align=center;verticalAlign=middle;resizable=0;points=[];autosize=1;strokeColor=none;fillColor=none;" vertex="1" parent="1">
          <mxGeometry x="160" y="285" width="100" height="30" as="geometry" />
        </mxCell>
      </root>
    </mxGraphModel>
  </diagram>
  <diagram id="fqnsNKDIlj-fG5X_1S_g" name="fractured1">
    <mxGraphModel dx="392" dy="548" grid="1" gridSize="10" guides="1" tooltips="1" connect="1" arrows="1" fold="1" page="1" pageScale="1" pageWidth="850" pageHeight="1100" math="0" shadow="0">
      <root>
        <mxCell id="0" />
        <mxCell id="1" parent="0" />
        <mxCell id="E2nOJc9iMUXO6iF5jcWU-1" value="" style="endArrow=none;html=1;rounded=0;" edge="1" parent="1">
          <mxGeometry width="50" height="50" relative="1" as="geometry">
            <mxPoint x="130" y="330" as="sourcePoint" />
            <mxPoint x="290" y="330" as="targetPoint" />
          </mxGeometry>
        </mxCell>
        <mxCell id="E2nOJc9iMUXO6iF5jcWU-2" value="" style="rounded=0;whiteSpace=wrap;html=1;fillColor=#d5e8d4;strokeColor=#000000;" vertex="1" parent="1">
          <mxGeometry x="150" y="210" width="40" height="120" as="geometry" />
        </mxCell>
        <mxCell id="E2nOJc9iMUXO6iF5jcWU-3" value="" style="rounded=0;whiteSpace=wrap;html=1;fillColor=#d5e8d4;strokeColor=#000000;" vertex="1" parent="1">
          <mxGeometry x="230" y="210" width="40" height="120" as="geometry" />
        </mxCell>
        <mxCell id="E2nOJc9iMUXO6iF5jcWU-4" value="&lt;font face=&quot;Georgia&quot;&gt;&lt;i&gt;x&lt;/i&gt;&lt;/font&gt;" style="text;html=1;align=center;verticalAlign=middle;resizable=0;points=[];autosize=1;strokeColor=none;fillColor=none;" vertex="1" parent="1">
          <mxGeometry x="155" y="335" width="30" height="30" as="geometry" />
        </mxCell>
        <mxCell id="E2nOJc9iMUXO6iF5jcWU-5" value="&lt;font face=&quot;Georgia&quot;&gt;&lt;i&gt;y&lt;/i&gt;&lt;/font&gt;" style="text;html=1;align=center;verticalAlign=middle;resizable=0;points=[];autosize=1;strokeColor=none;fillColor=none;" vertex="1" parent="1">
          <mxGeometry x="235" y="335" width="30" height="30" as="geometry" />
        </mxCell>
        <mxCell id="E2nOJc9iMUXO6iF5jcWU-6" value="&lt;i&gt;&lt;font face=&quot;Georgia&quot;&gt;x&lt;sub&gt;0&lt;/sub&gt;&lt;/font&gt;&lt;/i&gt;" style="text;html=1;align=center;verticalAlign=middle;resizable=0;points=[];autosize=1;strokeColor=none;fillColor=none;" vertex="1" parent="1">
          <mxGeometry x="150" y="305" width="40" height="30" as="geometry" />
        </mxCell>
        <mxCell id="E2nOJc9iMUXO6iF5jcWU-7" value="&lt;i&gt;&lt;font face=&quot;Georgia&quot;&gt;y0&lt;/font&gt;&lt;/i&gt;" style="text;html=1;align=center;verticalAlign=middle;resizable=0;points=[];autosize=1;strokeColor=none;fillColor=none;" vertex="1" parent="1">
          <mxGeometry x="230" y="305" width="40" height="30" as="geometry" />
        </mxCell>
        <mxCell id="E2nOJc9iMUXO6iF5jcWU-8" value="" style="rounded=0;whiteSpace=wrap;html=1;" vertex="1" parent="1">
          <mxGeometry x="230" y="197.5" width="40" height="80" as="geometry" />
        </mxCell>
        <mxCell id="E2nOJc9iMUXO6iF5jcWU-9" value="&lt;i&gt;&lt;font face=&quot;Georgia&quot;&gt;y&lt;sub&gt;1&lt;/sub&gt;&lt;/font&gt;&lt;/i&gt;" style="text;html=1;align=center;verticalAlign=middle;resizable=0;points=[];autosize=1;" vertex="1" parent="1">
          <mxGeometry x="235" y="252.5" width="30" height="30" as="geometry" />
        </mxCell>
        <mxCell id="E2nOJc9iMUXO6iF5jcWU-10" value="" style="rounded=0;whiteSpace=wrap;html=1;" vertex="1" parent="1">
          <mxGeometry x="230" y="177.5" width="40" height="20" as="geometry" />
        </mxCell>
        <mxCell id="E2nOJc9iMUXO6iF5jcWU-11" value="" style="rounded=0;whiteSpace=wrap;html=1;dashed=1;" vertex="1" parent="1">
          <mxGeometry x="150" y="177.5" width="40" height="40" as="geometry" />
        </mxCell>
        <mxCell id="E2nOJc9iMUXO6iF5jcWU-12" value="" style="rounded=0;whiteSpace=wrap;html=1;dashed=1;" vertex="1" parent="1">
          <mxGeometry x="230" y="137.5" width="40" height="40" as="geometry" />
        </mxCell>
        <mxCell id="E2nOJc9iMUXO6iF5jcWU-13" value="" style="rounded=0;whiteSpace=wrap;html=1;strokeColor=none;" vertex="1" parent="1">
          <mxGeometry x="230" y="130" width="40" height="55" as="geometry" />
        </mxCell>
        <mxCell id="E2nOJc9iMUXO6iF5jcWU-14" value="" style="rounded=0;whiteSpace=wrap;html=1;" vertex="1" parent="1">
          <mxGeometry x="150" y="217.5" width="40" height="60" as="geometry" />
        </mxCell>
        <mxCell id="E2nOJc9iMUXO6iF5jcWU-15" value="&lt;font face=&quot;Georgia&quot;&gt;&lt;i&gt;x&lt;sub style=&quot;&quot;&gt;1&lt;/sub&gt;&lt;/i&gt;&lt;/font&gt;" style="text;html=1;align=center;verticalAlign=middle;resizable=0;points=[];autosize=1;" vertex="1" parent="1">
          <mxGeometry x="155" y="252.5" width="30" height="30" as="geometry" />
        </mxCell>
        <mxCell id="E2nOJc9iMUXO6iF5jcWU-16" value="&lt;i&gt;&lt;font face=&quot;Georgia&quot;&gt;y&lt;sub&gt;2&lt;/sub&gt;&lt;/font&gt;&lt;/i&gt;" style="text;html=1;align=center;verticalAlign=middle;resizable=0;points=[];autosize=1;" vertex="1" parent="1">
          <mxGeometry x="230" y="172.5" width="40" height="30" as="geometry" />
        </mxCell>
        <mxCell id="E2nOJc9iMUXO6iF5jcWU-17" value="" style="rounded=0;whiteSpace=wrap;html=1;strokeColor=none;" vertex="1" parent="1">
          <mxGeometry x="150" y="167.5" width="40" height="55" as="geometry" />
        </mxCell>
        <mxCell id="E2nOJc9iMUXO6iF5jcWU-18" value="&lt;font color=&quot;#6600cc&quot;&gt;&lt;span style=&quot;font-size: 13px;&quot;&gt;v_writer = &lt;i&gt;&lt;font face=&quot;Georgia&quot;&gt;T&lt;sub&gt;1&lt;/sub&gt;&lt;/font&gt;&lt;/i&gt;&lt;/span&gt;&lt;/font&gt;" style="text;html=1;align=center;verticalAlign=middle;resizable=0;points=[];autosize=1;fontSize=8;" vertex="1" parent="1">
          <mxGeometry x="160" y="212.5" width="100" height="30" as="geometry" />
        </mxCell>
        <mxCell id="E2nOJc9iMUXO6iF5jcWU-19" value="&lt;font color=&quot;#cc0000&quot;&gt;&lt;span style=&quot;font-size: 13px;&quot;&gt;v_writer = &lt;i&gt;&lt;font face=&quot;Georgia&quot;&gt;T&lt;sub&gt;2&lt;/sub&gt;&lt;/font&gt;&lt;/i&gt;&lt;/span&gt;&lt;/font&gt;" style="text;html=1;align=center;verticalAlign=middle;resizable=0;points=[];autosize=1;fontSize=8;" vertex="1" parent="1">
          <mxGeometry x="160" y="137.5" width="100" height="30" as="geometry" />
        </mxCell>
        <mxCell id="E2nOJc9iMUXO6iF5jcWU-20" value="&lt;b&gt;v_writer = &lt;font face=&quot;Georgia&quot;&gt;&lt;i&gt;T&lt;sub&gt;0&lt;/sub&gt;&lt;/i&gt;&lt;/font&gt;&lt;/b&gt;" style="text;html=1;align=center;verticalAlign=middle;resizable=0;points=[];autosize=1;strokeColor=none;fillColor=none;" vertex="1" parent="1">
          <mxGeometry x="160" y="285" width="100" height="30" as="geometry" />
        </mxCell>
      </root>
    </mxGraphModel>
  </diagram>
  <diagram id="ui945IOL2hPT7TE2eMQa" name="fractured2">
    <mxGraphModel dx="392" dy="548" grid="1" gridSize="10" guides="1" tooltips="1" connect="1" arrows="1" fold="1" page="1" pageScale="1" pageWidth="850" pageHeight="1100" math="0" shadow="0">
      <root>
        <mxCell id="0" />
        <mxCell id="1" parent="0" />
        <mxCell id="mjdrrWAP-oLhIL3uAwTA-1" value="" style="endArrow=none;html=1;rounded=0;" edge="1" parent="1">
          <mxGeometry width="50" height="50" relative="1" as="geometry">
            <mxPoint x="130" y="330" as="sourcePoint" />
            <mxPoint x="290" y="330" as="targetPoint" />
          </mxGeometry>
        </mxCell>
        <mxCell id="mjdrrWAP-oLhIL3uAwTA-2" value="" style="rounded=0;whiteSpace=wrap;html=1;fillColor=#f8cecc;strokeColor=#000000;" vertex="1" parent="1">
          <mxGeometry x="150" y="210" width="40" height="120" as="geometry" />
        </mxCell>
        <mxCell id="mjdrrWAP-oLhIL3uAwTA-3" value="" style="rounded=0;whiteSpace=wrap;html=1;" vertex="1" parent="1">
          <mxGeometry x="230" y="210" width="40" height="120" as="geometry" />
        </mxCell>
        <mxCell id="mjdrrWAP-oLhIL3uAwTA-4" value="&lt;font face=&quot;Georgia&quot;&gt;&lt;i&gt;x&lt;/i&gt;&lt;/font&gt;" style="text;html=1;align=center;verticalAlign=middle;resizable=0;points=[];autosize=1;strokeColor=none;fillColor=none;" vertex="1" parent="1">
          <mxGeometry x="155" y="335" width="30" height="30" as="geometry" />
        </mxCell>
        <mxCell id="mjdrrWAP-oLhIL3uAwTA-5" value="&lt;font face=&quot;Georgia&quot;&gt;&lt;i&gt;y&lt;/i&gt;&lt;/font&gt;" style="text;html=1;align=center;verticalAlign=middle;resizable=0;points=[];autosize=1;strokeColor=none;fillColor=none;" vertex="1" parent="1">
          <mxGeometry x="235" y="335" width="30" height="30" as="geometry" />
        </mxCell>
        <mxCell id="mjdrrWAP-oLhIL3uAwTA-6" value="&lt;i&gt;&lt;font face=&quot;Georgia&quot;&gt;x&lt;sub&gt;0&lt;/sub&gt;&lt;/font&gt;&lt;/i&gt;" style="text;html=1;align=center;verticalAlign=middle;resizable=0;points=[];autosize=1;strokeColor=none;fillColor=none;" vertex="1" parent="1">
          <mxGeometry x="150" y="305" width="40" height="30" as="geometry" />
        </mxCell>
        <mxCell id="mjdrrWAP-oLhIL3uAwTA-7" value="&lt;i&gt;&lt;font face=&quot;Georgia&quot;&gt;y0&lt;/font&gt;&lt;/i&gt;" style="text;html=1;align=center;verticalAlign=middle;resizable=0;points=[];autosize=1;strokeColor=none;fillColor=none;" vertex="1" parent="1">
          <mxGeometry x="230" y="305" width="40" height="30" as="geometry" />
        </mxCell>
        <mxCell id="mjdrrWAP-oLhIL3uAwTA-8" value="" style="rounded=0;whiteSpace=wrap;html=1;fillColor=#f8cecc;strokeColor=#000000;" vertex="1" parent="1">
          <mxGeometry x="230" y="197.5" width="40" height="80" as="geometry" />
        </mxCell>
        <mxCell id="mjdrrWAP-oLhIL3uAwTA-9" value="&lt;i&gt;&lt;font face=&quot;Georgia&quot;&gt;y&lt;sub&gt;1&lt;/sub&gt;&lt;/font&gt;&lt;/i&gt;" style="text;html=1;align=center;verticalAlign=middle;resizable=0;points=[];autosize=1;" vertex="1" parent="1">
          <mxGeometry x="235" y="252.5" width="30" height="30" as="geometry" />
        </mxCell>
        <mxCell id="mjdrrWAP-oLhIL3uAwTA-10" value="" style="rounded=0;whiteSpace=wrap;html=1;" vertex="1" parent="1">
          <mxGeometry x="230" y="177.5" width="40" height="20" as="geometry" />
        </mxCell>
        <mxCell id="mjdrrWAP-oLhIL3uAwTA-11" value="" style="rounded=0;whiteSpace=wrap;html=1;dashed=1;" vertex="1" parent="1">
          <mxGeometry x="150" y="177.5" width="40" height="40" as="geometry" />
        </mxCell>
        <mxCell id="mjdrrWAP-oLhIL3uAwTA-12" value="" style="rounded=0;whiteSpace=wrap;html=1;dashed=1;" vertex="1" parent="1">
          <mxGeometry x="230" y="137.5" width="40" height="40" as="geometry" />
        </mxCell>
        <mxCell id="mjdrrWAP-oLhIL3uAwTA-13" value="" style="rounded=0;whiteSpace=wrap;html=1;strokeColor=none;" vertex="1" parent="1">
          <mxGeometry x="230" y="130" width="40" height="55" as="geometry" />
        </mxCell>
        <mxCell id="mjdrrWAP-oLhIL3uAwTA-14" value="" style="rounded=0;whiteSpace=wrap;html=1;" vertex="1" parent="1">
          <mxGeometry x="150" y="217.5" width="40" height="60" as="geometry" />
        </mxCell>
        <mxCell id="mjdrrWAP-oLhIL3uAwTA-15" value="&lt;font face=&quot;Georgia&quot;&gt;&lt;i&gt;x&lt;sub style=&quot;&quot;&gt;1&lt;/sub&gt;&lt;/i&gt;&lt;/font&gt;" style="text;html=1;align=center;verticalAlign=middle;resizable=0;points=[];autosize=1;" vertex="1" parent="1">
          <mxGeometry x="155" y="252.5" width="30" height="30" as="geometry" />
        </mxCell>
        <mxCell id="mjdrrWAP-oLhIL3uAwTA-16" value="&lt;i&gt;&lt;font face=&quot;Georgia&quot;&gt;y&lt;sub&gt;2&lt;/sub&gt;&lt;/font&gt;&lt;/i&gt;" style="text;html=1;align=center;verticalAlign=middle;resizable=0;points=[];autosize=1;" vertex="1" parent="1">
          <mxGeometry x="230" y="172.5" width="40" height="30" as="geometry" />
        </mxCell>
        <mxCell id="mjdrrWAP-oLhIL3uAwTA-17" value="" style="rounded=0;whiteSpace=wrap;html=1;strokeColor=none;" vertex="1" parent="1">
          <mxGeometry x="150" y="167.5" width="40" height="55" as="geometry" />
        </mxCell>
        <mxCell id="mjdrrWAP-oLhIL3uAwTA-18" value="&lt;font color=&quot;#6600cc&quot;&gt;&lt;span style=&quot;font-size: 13px;&quot;&gt;v_writer = &lt;i&gt;&lt;font face=&quot;Georgia&quot;&gt;T&lt;sub&gt;1&lt;/sub&gt;&lt;/font&gt;&lt;/i&gt;&lt;/span&gt;&lt;/font&gt;" style="text;html=1;align=center;verticalAlign=middle;resizable=0;points=[];autosize=1;fontSize=8;" vertex="1" parent="1">
          <mxGeometry x="160" y="212.5" width="100" height="30" as="geometry" />
        </mxCell>
        <mxCell id="mjdrrWAP-oLhIL3uAwTA-19" value="&lt;font color=&quot;#cc0000&quot;&gt;&lt;span style=&quot;font-size: 13px;&quot;&gt;v_writer = &lt;i&gt;&lt;font face=&quot;Georgia&quot;&gt;T&lt;sub&gt;2&lt;/sub&gt;&lt;/font&gt;&lt;/i&gt;&lt;/span&gt;&lt;/font&gt;" style="text;html=1;align=center;verticalAlign=middle;resizable=0;points=[];autosize=1;fontSize=8;" vertex="1" parent="1">
          <mxGeometry x="160" y="137.5" width="100" height="30" as="geometry" />
        </mxCell>
        <mxCell id="mjdrrWAP-oLhIL3uAwTA-20" value="&lt;b&gt;v_writer = &lt;font face=&quot;Georgia&quot;&gt;&lt;i&gt;T&lt;sub&gt;0&lt;/sub&gt;&lt;/i&gt;&lt;/font&gt;&lt;/b&gt;" style="text;html=1;align=center;verticalAlign=middle;resizable=0;points=[];autosize=1;strokeColor=none;fillColor=none;" vertex="1" parent="1">
          <mxGeometry x="160" y="285" width="100" height="30" as="geometry" />
        </mxCell>
      </root>
    </mxGraphModel>
  </diagram>
  <diagram id="i4-sOBXosf3A7IyJSg_w" name="fractured3">
    <mxGraphModel dx="392" dy="548" grid="1" gridSize="10" guides="1" tooltips="1" connect="1" arrows="1" fold="1" page="1" pageScale="1" pageWidth="850" pageHeight="1100" math="0" shadow="0">
      <root>
        <mxCell id="0" />
        <mxCell id="1" parent="0" />
        <mxCell id="laXYwMlzu5BxsXqSO8Ae-1" value="" style="endArrow=none;html=1;rounded=0;" edge="1" parent="1">
          <mxGeometry width="50" height="50" relative="1" as="geometry">
            <mxPoint x="130" y="330" as="sourcePoint" />
            <mxPoint x="290" y="330" as="targetPoint" />
          </mxGeometry>
        </mxCell>
        <mxCell id="laXYwMlzu5BxsXqSO8Ae-2" value="" style="rounded=0;whiteSpace=wrap;html=1;fillColor=#d5e8d4;strokeColor=#000000;" vertex="1" parent="1">
          <mxGeometry x="150" y="210" width="40" height="120" as="geometry" />
        </mxCell>
        <mxCell id="laXYwMlzu5BxsXqSO8Ae-3" value="" style="rounded=0;whiteSpace=wrap;html=1;" vertex="1" parent="1">
          <mxGeometry x="230" y="210" width="40" height="120" as="geometry" />
        </mxCell>
        <mxCell id="laXYwMlzu5BxsXqSO8Ae-4" value="&lt;font face=&quot;Georgia&quot;&gt;&lt;i&gt;x&lt;/i&gt;&lt;/font&gt;" style="text;html=1;align=center;verticalAlign=middle;resizable=0;points=[];autosize=1;strokeColor=none;fillColor=none;" vertex="1" parent="1">
          <mxGeometry x="155" y="335" width="30" height="30" as="geometry" />
        </mxCell>
        <mxCell id="laXYwMlzu5BxsXqSO8Ae-5" value="&lt;font face=&quot;Georgia&quot;&gt;&lt;i&gt;y&lt;/i&gt;&lt;/font&gt;" style="text;html=1;align=center;verticalAlign=middle;resizable=0;points=[];autosize=1;strokeColor=none;fillColor=none;" vertex="1" parent="1">
          <mxGeometry x="235" y="335" width="30" height="30" as="geometry" />
        </mxCell>
        <mxCell id="laXYwMlzu5BxsXqSO8Ae-6" value="&lt;i&gt;&lt;font face=&quot;Georgia&quot;&gt;x&lt;sub&gt;0&lt;/sub&gt;&lt;/font&gt;&lt;/i&gt;" style="text;html=1;align=center;verticalAlign=middle;resizable=0;points=[];autosize=1;strokeColor=none;fillColor=none;" vertex="1" parent="1">
          <mxGeometry x="150" y="305" width="40" height="30" as="geometry" />
        </mxCell>
        <mxCell id="laXYwMlzu5BxsXqSO8Ae-7" value="&lt;i&gt;&lt;font face=&quot;Georgia&quot;&gt;y0&lt;/font&gt;&lt;/i&gt;" style="text;html=1;align=center;verticalAlign=middle;resizable=0;points=[];autosize=1;strokeColor=none;fillColor=none;" vertex="1" parent="1">
          <mxGeometry x="230" y="305" width="40" height="30" as="geometry" />
        </mxCell>
        <mxCell id="laXYwMlzu5BxsXqSO8Ae-8" value="" style="rounded=0;whiteSpace=wrap;html=1;" vertex="1" parent="1">
          <mxGeometry x="230" y="197.5" width="40" height="80" as="geometry" />
        </mxCell>
        <mxCell id="laXYwMlzu5BxsXqSO8Ae-9" value="&lt;i&gt;&lt;font face=&quot;Georgia&quot;&gt;y&lt;sub&gt;1&lt;/sub&gt;&lt;/font&gt;&lt;/i&gt;" style="text;html=1;align=center;verticalAlign=middle;resizable=0;points=[];autosize=1;" vertex="1" parent="1">
          <mxGeometry x="235" y="252.5" width="30" height="30" as="geometry" />
        </mxCell>
        <mxCell id="laXYwMlzu5BxsXqSO8Ae-10" value="" style="rounded=0;whiteSpace=wrap;html=1;fillColor=#d5e8d4;strokeColor=#000000;" vertex="1" parent="1">
          <mxGeometry x="230" y="177.5" width="40" height="20" as="geometry" />
        </mxCell>
        <mxCell id="laXYwMlzu5BxsXqSO8Ae-11" value="" style="rounded=0;whiteSpace=wrap;html=1;dashed=1;" vertex="1" parent="1">
          <mxGeometry x="150" y="177.5" width="40" height="40" as="geometry" />
        </mxCell>
        <mxCell id="laXYwMlzu5BxsXqSO8Ae-12" value="" style="rounded=0;whiteSpace=wrap;html=1;dashed=1;fillColor=#d5e8d4;strokeColor=#000000;" vertex="1" parent="1">
          <mxGeometry x="230" y="137.5" width="40" height="40" as="geometry" />
        </mxCell>
        <mxCell id="laXYwMlzu5BxsXqSO8Ae-13" value="" style="rounded=0;whiteSpace=wrap;html=1;strokeColor=none;fillColor=#d5e8d4;" vertex="1" parent="1">
          <mxGeometry x="230" y="130" width="40" height="55" as="geometry" />
        </mxCell>
        <mxCell id="laXYwMlzu5BxsXqSO8Ae-14" value="" style="rounded=0;whiteSpace=wrap;html=1;" vertex="1" parent="1">
          <mxGeometry x="150" y="217.5" width="40" height="60" as="geometry" />
        </mxCell>
        <mxCell id="laXYwMlzu5BxsXqSO8Ae-15" value="&lt;font face=&quot;Georgia&quot;&gt;&lt;i&gt;x&lt;sub style=&quot;&quot;&gt;1&lt;/sub&gt;&lt;/i&gt;&lt;/font&gt;" style="text;html=1;align=center;verticalAlign=middle;resizable=0;points=[];autosize=1;" vertex="1" parent="1">
          <mxGeometry x="155" y="252.5" width="30" height="30" as="geometry" />
        </mxCell>
        <mxCell id="laXYwMlzu5BxsXqSO8Ae-16" value="&lt;i&gt;&lt;font face=&quot;Georgia&quot;&gt;y&lt;sub&gt;2&lt;/sub&gt;&lt;/font&gt;&lt;/i&gt;" style="text;html=1;align=center;verticalAlign=middle;resizable=0;points=[];autosize=1;" vertex="1" parent="1">
          <mxGeometry x="230" y="172.5" width="40" height="30" as="geometry" />
        </mxCell>
        <mxCell id="laXYwMlzu5BxsXqSO8Ae-17" value="" style="rounded=0;whiteSpace=wrap;html=1;strokeColor=none;" vertex="1" parent="1">
          <mxGeometry x="150" y="167.5" width="40" height="55" as="geometry" />
        </mxCell>
        <mxCell id="laXYwMlzu5BxsXqSO8Ae-18" value="&lt;font color=&quot;#6600cc&quot;&gt;&lt;span style=&quot;font-size: 13px;&quot;&gt;v_writer = &lt;i&gt;&lt;font face=&quot;Georgia&quot;&gt;T&lt;sub&gt;1&lt;/sub&gt;&lt;/font&gt;&lt;/i&gt;&lt;/span&gt;&lt;/font&gt;" style="text;html=1;align=center;verticalAlign=middle;resizable=0;points=[];autosize=1;fontSize=8;" vertex="1" parent="1">
          <mxGeometry x="160" y="212.5" width="100" height="30" as="geometry" />
        </mxCell>
        <mxCell id="laXYwMlzu5BxsXqSO8Ae-19" value="&lt;font color=&quot;#cc0000&quot;&gt;&lt;span style=&quot;font-size: 13px;&quot;&gt;v_writer = &lt;i&gt;&lt;font face=&quot;Georgia&quot;&gt;T&lt;sub&gt;2&lt;/sub&gt;&lt;/font&gt;&lt;/i&gt;&lt;/span&gt;&lt;/font&gt;" style="text;html=1;align=center;verticalAlign=middle;resizable=0;points=[];autosize=1;fontSize=8;" vertex="1" parent="1">
          <mxGeometry x="160" y="137.5" width="100" height="30" as="geometry" />
        </mxCell>
        <mxCell id="laXYwMlzu5BxsXqSO8Ae-20" value="&lt;b&gt;v_writer = &lt;font face=&quot;Georgia&quot;&gt;&lt;i&gt;T&lt;sub&gt;0&lt;/sub&gt;&lt;/i&gt;&lt;/font&gt;&lt;/b&gt;" style="text;html=1;align=center;verticalAlign=middle;resizable=0;points=[];autosize=1;strokeColor=none;fillColor=none;" vertex="1" parent="1">
          <mxGeometry x="160" y="285" width="100" height="30" as="geometry" />
        </mxCell>
      </root>
    </mxGraphModel>
  </diagram>
  <diagram id="rctNhalQWKRbLLEIAUvM" name="fractured4">
    <mxGraphModel dx="392" dy="548" grid="1" gridSize="10" guides="1" tooltips="1" connect="1" arrows="1" fold="1" page="1" pageScale="1" pageWidth="850" pageHeight="1100" math="0" shadow="0">
      <root>
        <mxCell id="0" />
        <mxCell id="1" parent="0" />
        <mxCell id="Itjs2oImKu6E1nnNlMzR-1" value="" style="endArrow=none;html=1;rounded=0;" edge="1" parent="1">
          <mxGeometry width="50" height="50" relative="1" as="geometry">
            <mxPoint x="130" y="330" as="sourcePoint" />
            <mxPoint x="290" y="330" as="targetPoint" />
          </mxGeometry>
        </mxCell>
        <mxCell id="Itjs2oImKu6E1nnNlMzR-2" value="" style="rounded=0;whiteSpace=wrap;html=1;" vertex="1" parent="1">
          <mxGeometry x="150" y="210" width="40" height="120" as="geometry" />
        </mxCell>
        <mxCell id="Itjs2oImKu6E1nnNlMzR-3" value="" style="rounded=0;whiteSpace=wrap;html=1;fillColor=#f8cecc;strokeColor=#000000;" vertex="1" parent="1">
          <mxGeometry x="230" y="210" width="40" height="120" as="geometry" />
        </mxCell>
        <mxCell id="Itjs2oImKu6E1nnNlMzR-4" value="&lt;font face=&quot;Georgia&quot;&gt;&lt;i&gt;x&lt;/i&gt;&lt;/font&gt;" style="text;html=1;align=center;verticalAlign=middle;resizable=0;points=[];autosize=1;strokeColor=none;fillColor=none;" vertex="1" parent="1">
          <mxGeometry x="155" y="335" width="30" height="30" as="geometry" />
        </mxCell>
        <mxCell id="Itjs2oImKu6E1nnNlMzR-5" value="&lt;font face=&quot;Georgia&quot;&gt;&lt;i&gt;y&lt;/i&gt;&lt;/font&gt;" style="text;html=1;align=center;verticalAlign=middle;resizable=0;points=[];autosize=1;strokeColor=none;fillColor=none;" vertex="1" parent="1">
          <mxGeometry x="235" y="335" width="30" height="30" as="geometry" />
        </mxCell>
        <mxCell id="Itjs2oImKu6E1nnNlMzR-6" value="&lt;i&gt;&lt;font face=&quot;Georgia&quot;&gt;x&lt;sub&gt;0&lt;/sub&gt;&lt;/font&gt;&lt;/i&gt;" style="text;html=1;align=center;verticalAlign=middle;resizable=0;points=[];autosize=1;strokeColor=none;fillColor=none;" vertex="1" parent="1">
          <mxGeometry x="150" y="305" width="40" height="30" as="geometry" />
        </mxCell>
        <mxCell id="Itjs2oImKu6E1nnNlMzR-7" value="&lt;i&gt;&lt;font face=&quot;Georgia&quot;&gt;y0&lt;/font&gt;&lt;/i&gt;" style="text;html=1;align=center;verticalAlign=middle;resizable=0;points=[];autosize=1;strokeColor=none;fillColor=none;" vertex="1" parent="1">
          <mxGeometry x="230" y="305" width="40" height="30" as="geometry" />
        </mxCell>
        <mxCell id="Itjs2oImKu6E1nnNlMzR-8" value="" style="rounded=0;whiteSpace=wrap;html=1;" vertex="1" parent="1">
          <mxGeometry x="230" y="197.5" width="40" height="80" as="geometry" />
        </mxCell>
        <mxCell id="Itjs2oImKu6E1nnNlMzR-9" value="&lt;i&gt;&lt;font face=&quot;Georgia&quot;&gt;y&lt;sub&gt;1&lt;/sub&gt;&lt;/font&gt;&lt;/i&gt;" style="text;html=1;align=center;verticalAlign=middle;resizable=0;points=[];autosize=1;" vertex="1" parent="1">
          <mxGeometry x="235" y="252.5" width="30" height="30" as="geometry" />
        </mxCell>
        <mxCell id="Itjs2oImKu6E1nnNlMzR-10" value="" style="rounded=0;whiteSpace=wrap;html=1;" vertex="1" parent="1">
          <mxGeometry x="230" y="177.5" width="40" height="20" as="geometry" />
        </mxCell>
        <mxCell id="Itjs2oImKu6E1nnNlMzR-11" value="" style="rounded=0;whiteSpace=wrap;html=1;dashed=1;fillColor=#f8cecc;strokeColor=#000000;" vertex="1" parent="1">
          <mxGeometry x="150" y="177.5" width="40" height="40" as="geometry" />
        </mxCell>
        <mxCell id="Itjs2oImKu6E1nnNlMzR-12" value="" style="rounded=0;whiteSpace=wrap;html=1;dashed=1;" vertex="1" parent="1">
          <mxGeometry x="230" y="137.5" width="40" height="40" as="geometry" />
        </mxCell>
        <mxCell id="Itjs2oImKu6E1nnNlMzR-13" value="" style="rounded=0;whiteSpace=wrap;html=1;strokeColor=none;" vertex="1" parent="1">
          <mxGeometry x="230" y="130" width="40" height="55" as="geometry" />
        </mxCell>
        <mxCell id="Itjs2oImKu6E1nnNlMzR-14" value="" style="rounded=0;whiteSpace=wrap;html=1;fillColor=#f8cecc;strokeColor=#000000;" vertex="1" parent="1">
          <mxGeometry x="150" y="217.5" width="40" height="60" as="geometry" />
        </mxCell>
        <mxCell id="Itjs2oImKu6E1nnNlMzR-15" value="&lt;font face=&quot;Georgia&quot;&gt;&lt;i&gt;x&lt;sub style=&quot;&quot;&gt;1&lt;/sub&gt;&lt;/i&gt;&lt;/font&gt;" style="text;html=1;align=center;verticalAlign=middle;resizable=0;points=[];autosize=1;" vertex="1" parent="1">
          <mxGeometry x="155" y="252.5" width="30" height="30" as="geometry" />
        </mxCell>
        <mxCell id="Itjs2oImKu6E1nnNlMzR-16" value="&lt;i&gt;&lt;font face=&quot;Georgia&quot;&gt;y&lt;sub&gt;2&lt;/sub&gt;&lt;/font&gt;&lt;/i&gt;" style="text;html=1;align=center;verticalAlign=middle;resizable=0;points=[];autosize=1;" vertex="1" parent="1">
          <mxGeometry x="230" y="172.5" width="40" height="30" as="geometry" />
        </mxCell>
        <mxCell id="Itjs2oImKu6E1nnNlMzR-17" value="" style="rounded=0;whiteSpace=wrap;html=1;strokeColor=none;fillColor=#f8cecc;" vertex="1" parent="1">
          <mxGeometry x="150" y="167.5" width="40" height="55" as="geometry" />
        </mxCell>
        <mxCell id="Itjs2oImKu6E1nnNlMzR-18" value="&lt;font color=&quot;#6600cc&quot;&gt;&lt;span style=&quot;font-size: 13px;&quot;&gt;v_writer = &lt;i&gt;&lt;font face=&quot;Georgia&quot;&gt;T&lt;sub&gt;1&lt;/sub&gt;&lt;/font&gt;&lt;/i&gt;&lt;/span&gt;&lt;/font&gt;" style="text;html=1;align=center;verticalAlign=middle;resizable=0;points=[];autosize=1;fontSize=8;" vertex="1" parent="1">
          <mxGeometry x="160" y="212.5" width="100" height="30" as="geometry" />
        </mxCell>
        <mxCell id="Itjs2oImKu6E1nnNlMzR-19" value="&lt;font color=&quot;#cc0000&quot;&gt;&lt;span style=&quot;font-size: 13px;&quot;&gt;v_writer = &lt;i&gt;&lt;font face=&quot;Georgia&quot;&gt;T&lt;sub&gt;2&lt;/sub&gt;&lt;/font&gt;&lt;/i&gt;&lt;/span&gt;&lt;/font&gt;" style="text;html=1;align=center;verticalAlign=middle;resizable=0;points=[];autosize=1;fontSize=8;" vertex="1" parent="1">
          <mxGeometry x="160" y="137.5" width="100" height="30" as="geometry" />
        </mxCell>
        <mxCell id="Itjs2oImKu6E1nnNlMzR-20" value="&lt;b&gt;v_writer = &lt;font face=&quot;Georgia&quot;&gt;&lt;i&gt;T&lt;sub&gt;0&lt;/sub&gt;&lt;/i&gt;&lt;/font&gt;&lt;/b&gt;" style="text;html=1;align=center;verticalAlign=middle;resizable=0;points=[];autosize=1;strokeColor=none;fillColor=none;" vertex="1" parent="1">
          <mxGeometry x="160" y="285" width="100" height="30" as="geometry" />
        </mxCell>
      </root>
    </mxGraphModel>
  </diagram>
  <diagram id="Cmvn-3Px-U1tiWWmKvIm" name="fractured5">
    <mxGraphModel dx="392" dy="548" grid="1" gridSize="10" guides="1" tooltips="1" connect="1" arrows="1" fold="1" page="1" pageScale="1" pageWidth="850" pageHeight="1100" math="0" shadow="0">
      <root>
        <mxCell id="0" />
        <mxCell id="1" parent="0" />
        <mxCell id="vB7wPJbKTrRRdacGsIjR-1" value="" style="endArrow=none;html=1;rounded=0;" edge="1" parent="1">
          <mxGeometry width="50" height="50" relative="1" as="geometry">
            <mxPoint x="130" y="330" as="sourcePoint" />
            <mxPoint x="290" y="330" as="targetPoint" />
          </mxGeometry>
        </mxCell>
        <mxCell id="vB7wPJbKTrRRdacGsIjR-2" value="" style="rounded=0;whiteSpace=wrap;html=1;" vertex="1" parent="1">
          <mxGeometry x="150" y="210" width="40" height="120" as="geometry" />
        </mxCell>
        <mxCell id="vB7wPJbKTrRRdacGsIjR-3" value="" style="rounded=0;whiteSpace=wrap;html=1;" vertex="1" parent="1">
          <mxGeometry x="230" y="210" width="40" height="120" as="geometry" />
        </mxCell>
        <mxCell id="vB7wPJbKTrRRdacGsIjR-4" value="&lt;font face=&quot;Georgia&quot;&gt;&lt;i&gt;x&lt;/i&gt;&lt;/font&gt;" style="text;html=1;align=center;verticalAlign=middle;resizable=0;points=[];autosize=1;strokeColor=none;fillColor=none;" vertex="1" parent="1">
          <mxGeometry x="155" y="335" width="30" height="30" as="geometry" />
        </mxCell>
        <mxCell id="vB7wPJbKTrRRdacGsIjR-5" value="&lt;font face=&quot;Georgia&quot;&gt;&lt;i&gt;y&lt;/i&gt;&lt;/font&gt;" style="text;html=1;align=center;verticalAlign=middle;resizable=0;points=[];autosize=1;strokeColor=none;fillColor=none;" vertex="1" parent="1">
          <mxGeometry x="235" y="335" width="30" height="30" as="geometry" />
        </mxCell>
        <mxCell id="vB7wPJbKTrRRdacGsIjR-6" value="&lt;i&gt;&lt;font face=&quot;Georgia&quot;&gt;x&lt;sub&gt;0&lt;/sub&gt;&lt;/font&gt;&lt;/i&gt;" style="text;html=1;align=center;verticalAlign=middle;resizable=0;points=[];autosize=1;strokeColor=none;fillColor=none;" vertex="1" parent="1">
          <mxGeometry x="150" y="305" width="40" height="30" as="geometry" />
        </mxCell>
        <mxCell id="vB7wPJbKTrRRdacGsIjR-7" value="&lt;i&gt;&lt;font face=&quot;Georgia&quot;&gt;y0&lt;/font&gt;&lt;/i&gt;" style="text;html=1;align=center;verticalAlign=middle;resizable=0;points=[];autosize=1;strokeColor=none;fillColor=none;" vertex="1" parent="1">
          <mxGeometry x="230" y="305" width="40" height="30" as="geometry" />
        </mxCell>
        <mxCell id="vB7wPJbKTrRRdacGsIjR-8" value="" style="rounded=0;whiteSpace=wrap;html=1;fillColor=#d5e8d4;strokeColor=#000000;" vertex="1" parent="1">
          <mxGeometry x="230" y="197.5" width="40" height="80" as="geometry" />
        </mxCell>
        <mxCell id="vB7wPJbKTrRRdacGsIjR-9" value="&lt;i&gt;&lt;font face=&quot;Georgia&quot;&gt;y&lt;sub&gt;1&lt;/sub&gt;&lt;/font&gt;&lt;/i&gt;" style="text;html=1;align=center;verticalAlign=middle;resizable=0;points=[];autosize=1;" vertex="1" parent="1">
          <mxGeometry x="235" y="252.5" width="30" height="30" as="geometry" />
        </mxCell>
        <mxCell id="vB7wPJbKTrRRdacGsIjR-10" value="" style="rounded=0;whiteSpace=wrap;html=1;" vertex="1" parent="1">
          <mxGeometry x="230" y="177.5" width="40" height="20" as="geometry" />
        </mxCell>
        <mxCell id="vB7wPJbKTrRRdacGsIjR-11" value="" style="rounded=0;whiteSpace=wrap;html=1;dashed=1;fillColor=#d5e8d4;strokeColor=#000000;" vertex="1" parent="1">
          <mxGeometry x="150" y="177.5" width="40" height="40" as="geometry" />
        </mxCell>
        <mxCell id="vB7wPJbKTrRRdacGsIjR-12" value="" style="rounded=0;whiteSpace=wrap;html=1;dashed=1;" vertex="1" parent="1">
          <mxGeometry x="230" y="137.5" width="40" height="40" as="geometry" />
        </mxCell>
        <mxCell id="vB7wPJbKTrRRdacGsIjR-13" value="" style="rounded=0;whiteSpace=wrap;html=1;strokeColor=none;" vertex="1" parent="1">
          <mxGeometry x="230" y="130" width="40" height="55" as="geometry" />
        </mxCell>
        <mxCell id="vB7wPJbKTrRRdacGsIjR-14" value="" style="rounded=0;whiteSpace=wrap;html=1;fillColor=#d5e8d4;strokeColor=#000000;" vertex="1" parent="1">
          <mxGeometry x="150" y="217.5" width="40" height="60" as="geometry" />
        </mxCell>
        <mxCell id="vB7wPJbKTrRRdacGsIjR-15" value="&lt;font face=&quot;Georgia&quot;&gt;&lt;i&gt;x&lt;sub style=&quot;&quot;&gt;1&lt;/sub&gt;&lt;/i&gt;&lt;/font&gt;" style="text;html=1;align=center;verticalAlign=middle;resizable=0;points=[];autosize=1;" vertex="1" parent="1">
          <mxGeometry x="155" y="252.5" width="30" height="30" as="geometry" />
        </mxCell>
        <mxCell id="vB7wPJbKTrRRdacGsIjR-16" value="&lt;i&gt;&lt;font face=&quot;Georgia&quot;&gt;y&lt;sub&gt;2&lt;/sub&gt;&lt;/font&gt;&lt;/i&gt;" style="text;html=1;align=center;verticalAlign=middle;resizable=0;points=[];autosize=1;" vertex="1" parent="1">
          <mxGeometry x="230" y="172.5" width="40" height="30" as="geometry" />
        </mxCell>
        <mxCell id="vB7wPJbKTrRRdacGsIjR-17" value="" style="rounded=0;whiteSpace=wrap;html=1;strokeColor=none;fillColor=#d5e8d4;" vertex="1" parent="1">
          <mxGeometry x="150" y="167.5" width="40" height="55" as="geometry" />
        </mxCell>
        <mxCell id="vB7wPJbKTrRRdacGsIjR-18" value="&lt;font color=&quot;#6600cc&quot;&gt;&lt;span style=&quot;font-size: 13px;&quot;&gt;v_writer = &lt;i&gt;&lt;font face=&quot;Georgia&quot;&gt;T&lt;sub&gt;1&lt;/sub&gt;&lt;/font&gt;&lt;/i&gt;&lt;/span&gt;&lt;/font&gt;" style="text;html=1;align=center;verticalAlign=middle;resizable=0;points=[];autosize=1;fontSize=8;" vertex="1" parent="1">
          <mxGeometry x="160" y="212.5" width="100" height="30" as="geometry" />
        </mxCell>
        <mxCell id="vB7wPJbKTrRRdacGsIjR-19" value="&lt;font color=&quot;#cc0000&quot;&gt;&lt;span style=&quot;font-size: 13px;&quot;&gt;v_writer = &lt;i&gt;&lt;font face=&quot;Georgia&quot;&gt;T&lt;sub&gt;2&lt;/sub&gt;&lt;/font&gt;&lt;/i&gt;&lt;/span&gt;&lt;/font&gt;" style="text;html=1;align=center;verticalAlign=middle;resizable=0;points=[];autosize=1;fontSize=8;" vertex="1" parent="1">
          <mxGeometry x="160" y="137.5" width="100" height="30" as="geometry" />
        </mxCell>
        <mxCell id="vB7wPJbKTrRRdacGsIjR-20" value="&lt;b&gt;v_writer = &lt;font face=&quot;Georgia&quot;&gt;&lt;i&gt;T&lt;sub&gt;0&lt;/sub&gt;&lt;/i&gt;&lt;/font&gt;&lt;/b&gt;" style="text;html=1;align=center;verticalAlign=middle;resizable=0;points=[];autosize=1;strokeColor=none;fillColor=none;" vertex="1" parent="1">
          <mxGeometry x="160" y="285" width="100" height="30" as="geometry" />
        </mxCell>
      </root>
    </mxGraphModel>
  </diagram>
  <diagram id="tIih44SM9nJFSvedLCrN" name="fractured6">
    <mxGraphModel dx="392" dy="548" grid="1" gridSize="10" guides="1" tooltips="1" connect="1" arrows="1" fold="1" page="1" pageScale="1" pageWidth="850" pageHeight="1100" math="0" shadow="0">
      <root>
        <mxCell id="0" />
        <mxCell id="1" parent="0" />
        <mxCell id="R00mKSFX0d8wHAqkCN32-1" value="" style="endArrow=none;html=1;rounded=0;" edge="1" parent="1">
          <mxGeometry width="50" height="50" relative="1" as="geometry">
            <mxPoint x="130" y="330" as="sourcePoint" />
            <mxPoint x="290" y="330" as="targetPoint" />
          </mxGeometry>
        </mxCell>
        <mxCell id="R00mKSFX0d8wHAqkCN32-2" value="" style="rounded=0;whiteSpace=wrap;html=1;" vertex="1" parent="1">
          <mxGeometry x="150" y="210" width="40" height="120" as="geometry" />
        </mxCell>
        <mxCell id="R00mKSFX0d8wHAqkCN32-3" value="" style="rounded=0;whiteSpace=wrap;html=1;" vertex="1" parent="1">
          <mxGeometry x="230" y="210" width="40" height="120" as="geometry" />
        </mxCell>
        <mxCell id="R00mKSFX0d8wHAqkCN32-4" value="&lt;font face=&quot;Georgia&quot;&gt;&lt;i&gt;x&lt;/i&gt;&lt;/font&gt;" style="text;html=1;align=center;verticalAlign=middle;resizable=0;points=[];autosize=1;strokeColor=none;fillColor=none;" vertex="1" parent="1">
          <mxGeometry x="155" y="335" width="30" height="30" as="geometry" />
        </mxCell>
        <mxCell id="R00mKSFX0d8wHAqkCN32-5" value="&lt;font face=&quot;Georgia&quot;&gt;&lt;i&gt;y&lt;/i&gt;&lt;/font&gt;" style="text;html=1;align=center;verticalAlign=middle;resizable=0;points=[];autosize=1;strokeColor=none;fillColor=none;" vertex="1" parent="1">
          <mxGeometry x="235" y="335" width="30" height="30" as="geometry" />
        </mxCell>
        <mxCell id="R00mKSFX0d8wHAqkCN32-6" value="&lt;i&gt;&lt;font face=&quot;Georgia&quot;&gt;x&lt;sub&gt;0&lt;/sub&gt;&lt;/font&gt;&lt;/i&gt;" style="text;html=1;align=center;verticalAlign=middle;resizable=0;points=[];autosize=1;strokeColor=none;fillColor=none;" vertex="1" parent="1">
          <mxGeometry x="150" y="305" width="40" height="30" as="geometry" />
        </mxCell>
        <mxCell id="R00mKSFX0d8wHAqkCN32-7" value="&lt;i&gt;&lt;font face=&quot;Georgia&quot;&gt;y0&lt;/font&gt;&lt;/i&gt;" style="text;html=1;align=center;verticalAlign=middle;resizable=0;points=[];autosize=1;strokeColor=none;fillColor=none;" vertex="1" parent="1">
          <mxGeometry x="230" y="305" width="40" height="30" as="geometry" />
        </mxCell>
        <mxCell id="R00mKSFX0d8wHAqkCN32-8" value="" style="rounded=0;whiteSpace=wrap;html=1;" vertex="1" parent="1">
          <mxGeometry x="230" y="197.5" width="40" height="80" as="geometry" />
        </mxCell>
        <mxCell id="R00mKSFX0d8wHAqkCN32-9" value="&lt;i&gt;&lt;font face=&quot;Georgia&quot;&gt;y&lt;sub&gt;1&lt;/sub&gt;&lt;/font&gt;&lt;/i&gt;" style="text;html=1;align=center;verticalAlign=middle;resizable=0;points=[];autosize=1;" vertex="1" parent="1">
          <mxGeometry x="235" y="252.5" width="30" height="30" as="geometry" />
        </mxCell>
        <mxCell id="R00mKSFX0d8wHAqkCN32-10" value="" style="rounded=0;whiteSpace=wrap;html=1;fillColor=#d5e8d4;strokeColor=#000000;" vertex="1" parent="1">
          <mxGeometry x="230" y="177.5" width="40" height="20" as="geometry" />
        </mxCell>
        <mxCell id="R00mKSFX0d8wHAqkCN32-11" value="" style="rounded=0;whiteSpace=wrap;html=1;dashed=1;fillColor=#d5e8d4;strokeColor=#000000;" vertex="1" parent="1">
          <mxGeometry x="150" y="177.5" width="40" height="40" as="geometry" />
        </mxCell>
        <mxCell id="R00mKSFX0d8wHAqkCN32-12" value="" style="rounded=0;whiteSpace=wrap;html=1;dashed=1;fillColor=#d5e8d4;strokeColor=#000000;" vertex="1" parent="1">
          <mxGeometry x="230" y="137.5" width="40" height="40" as="geometry" />
        </mxCell>
        <mxCell id="R00mKSFX0d8wHAqkCN32-13" value="" style="rounded=0;whiteSpace=wrap;html=1;strokeColor=none;fillColor=#d5e8d4;" vertex="1" parent="1">
          <mxGeometry x="230" y="130" width="40" height="55" as="geometry" />
        </mxCell>
        <mxCell id="R00mKSFX0d8wHAqkCN32-14" value="" style="rounded=0;whiteSpace=wrap;html=1;fillColor=#d5e8d4;strokeColor=#000000;" vertex="1" parent="1">
          <mxGeometry x="150" y="217.5" width="40" height="60" as="geometry" />
        </mxCell>
        <mxCell id="R00mKSFX0d8wHAqkCN32-15" value="&lt;font face=&quot;Georgia&quot;&gt;&lt;i&gt;x&lt;sub style=&quot;&quot;&gt;1&lt;/sub&gt;&lt;/i&gt;&lt;/font&gt;" style="text;html=1;align=center;verticalAlign=middle;resizable=0;points=[];autosize=1;" vertex="1" parent="1">
          <mxGeometry x="155" y="252.5" width="30" height="30" as="geometry" />
        </mxCell>
        <mxCell id="R00mKSFX0d8wHAqkCN32-16" value="&lt;i&gt;&lt;font face=&quot;Georgia&quot;&gt;y&lt;sub&gt;2&lt;/sub&gt;&lt;/font&gt;&lt;/i&gt;" style="text;html=1;align=center;verticalAlign=middle;resizable=0;points=[];autosize=1;" vertex="1" parent="1">
          <mxGeometry x="230" y="172.5" width="40" height="30" as="geometry" />
        </mxCell>
        <mxCell id="R00mKSFX0d8wHAqkCN32-17" value="" style="rounded=0;whiteSpace=wrap;html=1;strokeColor=none;fillColor=#d5e8d4;" vertex="1" parent="1">
          <mxGeometry x="150" y="167.5" width="40" height="55" as="geometry" />
        </mxCell>
        <mxCell id="R00mKSFX0d8wHAqkCN32-18" value="&lt;font color=&quot;#6600cc&quot;&gt;&lt;span style=&quot;font-size: 13px;&quot;&gt;v_writer = &lt;i&gt;&lt;font face=&quot;Georgia&quot;&gt;T&lt;sub&gt;1&lt;/sub&gt;&lt;/font&gt;&lt;/i&gt;&lt;/span&gt;&lt;/font&gt;" style="text;html=1;align=center;verticalAlign=middle;resizable=0;points=[];autosize=1;fontSize=8;" vertex="1" parent="1">
          <mxGeometry x="160" y="212.5" width="100" height="30" as="geometry" />
        </mxCell>
        <mxCell id="R00mKSFX0d8wHAqkCN32-19" value="&lt;font color=&quot;#cc0000&quot;&gt;&lt;span style=&quot;font-size: 13px;&quot;&gt;v_writer = &lt;i&gt;&lt;font face=&quot;Georgia&quot;&gt;T&lt;sub&gt;2&lt;/sub&gt;&lt;/font&gt;&lt;/i&gt;&lt;/span&gt;&lt;/font&gt;" style="text;html=1;align=center;verticalAlign=middle;resizable=0;points=[];autosize=1;fontSize=8;" vertex="1" parent="1">
          <mxGeometry x="160" y="137.5" width="100" height="30" as="geometry" />
        </mxCell>
        <mxCell id="R00mKSFX0d8wHAqkCN32-20" value="&lt;b&gt;v_writer = &lt;font face=&quot;Georgia&quot;&gt;&lt;i&gt;T&lt;sub&gt;0&lt;/sub&gt;&lt;/i&gt;&lt;/font&gt;&lt;/b&gt;" style="text;html=1;align=center;verticalAlign=middle;resizable=0;points=[];autosize=1;strokeColor=none;fillColor=none;" vertex="1" parent="1">
          <mxGeometry x="160" y="285" width="100" height="30" as="geometry" />
        </mxCell>
      </root>
    </mxGraphModel>
  </diagram>
  <diagram id="QViIxixHfU39WlhdVTaB" name="version-list">
    <mxGraphModel dx="392" dy="548" grid="1" gridSize="10" guides="1" tooltips="1" connect="1" arrows="1" fold="1" page="1" pageScale="1" pageWidth="850" pageHeight="1100" math="0" shadow="0">
      <root>
        <mxCell id="0" />
        <mxCell id="1" parent="0" />
        <mxCell id="qAObRO-ApLfeXA8-vYKz-1" value="v_value: &lt;i&gt;&lt;font face=&quot;Georgia&quot;&gt;v&lt;/font&gt;&lt;/i&gt;&lt;br&gt;&lt;br&gt;v_writer : &lt;font face=&quot;Georgia&quot;&gt;&lt;i&gt;t&lt;/i&gt;&lt;/font&gt;&lt;br&gt;&lt;br&gt;v_readerset : {&lt;font face=&quot;Georgia&quot;&gt;&lt;i&gt;t&#39;&lt;/i&gt;&lt;/font&gt;, &lt;font face=&quot;Georgia&quot;&gt;&lt;i&gt;t&#39;&#39;&amp;nbsp;&lt;/i&gt;&lt;/font&gt;}" style="rounded=0;whiteSpace=wrap;html=1;" vertex="1" parent="1">
          <mxGeometry x="257" y="275" width="113" height="90" as="geometry" />
        </mxCell>
        <mxCell id="qAObRO-ApLfeXA8-vYKz-2" value="" style="endArrow=none;html=1;rounded=0;exitX=0;exitY=0.25;exitDx=0;exitDy=0;entryX=0.992;entryY=0.329;entryDx=0;entryDy=0;entryPerimeter=0;" edge="1" parent="1" target="qAObRO-ApLfeXA8-vYKz-1">
          <mxGeometry width="50" height="50" relative="1" as="geometry">
            <mxPoint x="257" y="304.5" as="sourcePoint" />
            <mxPoint x="360" y="305" as="targetPoint" />
          </mxGeometry>
        </mxCell>
        <mxCell id="qAObRO-ApLfeXA8-vYKz-3" value="" style="endArrow=none;html=1;rounded=0;exitX=0;exitY=0.75;exitDx=0;exitDy=0;entryX=1;entryY=0.661;entryDx=0;entryDy=0;entryPerimeter=0;" edge="1" parent="1" target="qAObRO-ApLfeXA8-vYKz-1">
          <mxGeometry width="50" height="50" relative="1" as="geometry">
            <mxPoint x="257" y="334.5" as="sourcePoint" />
            <mxPoint x="357" y="334.5" as="targetPoint" />
          </mxGeometry>
        </mxCell>
        <mxCell id="qAObRO-ApLfeXA8-vYKz-4" value="Key &lt;i&gt;&lt;font face=&quot;Georgia&quot;&gt;k&lt;/font&gt;&lt;/i&gt;" style="text;html=1;align=center;verticalAlign=middle;resizable=0;points=[];autosize=1;strokeColor=none;fillColor=none;" vertex="1" parent="1">
          <mxGeometry x="55" y="305" width="50" height="30" as="geometry" />
        </mxCell>
        <mxCell id="qAObRO-ApLfeXA8-vYKz-5" value="" style="endArrow=classic;html=1;rounded=0;exitX=1.02;exitY=0.556;exitDx=0;exitDy=0;exitPerimeter=0;" edge="1" parent="1">
          <mxGeometry width="50" height="50" relative="1" as="geometry">
            <mxPoint x="106" y="320" as="sourcePoint" />
            <mxPoint x="160" y="320" as="targetPoint" />
          </mxGeometry>
        </mxCell>
        <mxCell id="qAObRO-ApLfeXA8-vYKz-6" value="" style="endArrow=none;dashed=1;html=1;dashPattern=1 3;strokeWidth=2;rounded=0;" edge="1" parent="1">
          <mxGeometry width="50" height="50" relative="1" as="geometry">
            <mxPoint x="170" y="319.5" as="sourcePoint" />
            <mxPoint x="190" y="319.5" as="targetPoint" />
          </mxGeometry>
        </mxCell>
        <mxCell id="qAObRO-ApLfeXA8-vYKz-7" value="" style="endArrow=classic;html=1;rounded=0;entryX=0;entryY=0.5;entryDx=0;entryDy=0;" edge="1" parent="1" target="qAObRO-ApLfeXA8-vYKz-1">
          <mxGeometry width="50" height="50" relative="1" as="geometry">
            <mxPoint x="200" y="320" as="sourcePoint" />
            <mxPoint x="430" y="220" as="targetPoint" />
          </mxGeometry>
        </mxCell>
        <mxCell id="qAObRO-ApLfeXA8-vYKz-8" value="v_value: &lt;font face=&quot;Georgia&quot;&gt;&lt;i&gt;v&#39;&lt;/i&gt;&lt;/font&gt;&lt;br&gt;&lt;br&gt;v_writer : &lt;font face=&quot;Georgia&quot;&gt;&lt;i&gt;t&#39;&lt;/i&gt;&lt;/font&gt;&lt;br&gt;&lt;br&gt;v_readerset : {}" style="rounded=0;whiteSpace=wrap;html=1;" vertex="1" parent="1">
          <mxGeometry x="470" y="275" width="100" height="90" as="geometry" />
        </mxCell>
        <mxCell id="qAObRO-ApLfeXA8-vYKz-9" value="" style="endArrow=none;html=1;rounded=0;exitX=0;exitY=0.25;exitDx=0;exitDy=0;entryX=1;entryY=0.25;entryDx=0;entryDy=0;" edge="1" parent="1">
          <mxGeometry width="50" height="50" relative="1" as="geometry">
            <mxPoint x="470" y="304.5" as="sourcePoint" />
            <mxPoint x="570" y="304.5" as="targetPoint" />
          </mxGeometry>
        </mxCell>
        <mxCell id="qAObRO-ApLfeXA8-vYKz-10" value="" style="endArrow=none;html=1;rounded=0;exitX=0;exitY=0.75;exitDx=0;exitDy=0;entryX=1;entryY=0.75;entryDx=0;entryDy=0;" edge="1" parent="1">
          <mxGeometry width="50" height="50" relative="1" as="geometry">
            <mxPoint x="470" y="334.5" as="sourcePoint" />
            <mxPoint x="570" y="334.5" as="targetPoint" />
          </mxGeometry>
        </mxCell>
        <mxCell id="qAObRO-ApLfeXA8-vYKz-11" value="" style="endArrow=classic;html=1;rounded=0;entryX=0;entryY=0.5;entryDx=0;entryDy=0;" edge="1" parent="1">
          <mxGeometry width="50" height="50" relative="1" as="geometry">
            <mxPoint x="570" y="319.5" as="sourcePoint" />
            <mxPoint x="627" y="319.5" as="targetPoint" />
          </mxGeometry>
        </mxCell>
        <mxCell id="qAObRO-ApLfeXA8-vYKz-12" value="" style="endArrow=none;dashed=1;html=1;dashPattern=1 3;strokeWidth=2;rounded=0;" edge="1" parent="1">
          <mxGeometry width="50" height="50" relative="1" as="geometry">
            <mxPoint x="633" y="319.8" as="sourcePoint" />
            <mxPoint x="653" y="319.8" as="targetPoint" />
          </mxGeometry>
        </mxCell>
        <mxCell id="qAObRO-ApLfeXA8-vYKz-13" value="" style="endArrow=classic;html=1;rounded=0;exitX=1;exitY=0.5;exitDx=0;exitDy=0;" edge="1" parent="1" source="qAObRO-ApLfeXA8-vYKz-1">
          <mxGeometry width="50" height="50" relative="1" as="geometry">
            <mxPoint x="380" y="340" as="sourcePoint" />
            <mxPoint x="400" y="320" as="targetPoint" />
          </mxGeometry>
        </mxCell>
        <mxCell id="qAObRO-ApLfeXA8-vYKz-14" value="" style="endArrow=classic;html=1;rounded=0;entryX=0;entryY=0.5;entryDx=0;entryDy=0;" edge="1" parent="1" target="qAObRO-ApLfeXA8-vYKz-8">
          <mxGeometry width="50" height="50" relative="1" as="geometry">
            <mxPoint x="430" y="320" as="sourcePoint" />
            <mxPoint x="400" y="330" as="targetPoint" />
          </mxGeometry>
        </mxCell>
        <mxCell id="qAObRO-ApLfeXA8-vYKz-15" value="" style="endArrow=none;dashed=1;html=1;dashPattern=1 3;strokeWidth=2;rounded=0;" edge="1" parent="1">
          <mxGeometry width="50" height="50" relative="1" as="geometry">
            <mxPoint x="405" y="319.87999999999994" as="sourcePoint" />
            <mxPoint x="425" y="319.87999999999994" as="targetPoint" />
          </mxGeometry>
        </mxCell>
        <mxCell id="qAObRO-ApLfeXA8-vYKz-16" value="version &lt;font face=&quot;Georgia&quot;&gt;&lt;i&gt;i&lt;/i&gt;&lt;/font&gt;" style="text;html=1;align=center;verticalAlign=middle;resizable=0;points=[];autosize=1;strokeColor=none;fillColor=none;" vertex="1" parent="1">
          <mxGeometry x="278.5" y="248" width="70" height="30" as="geometry" />
        </mxCell>
        <mxCell id="qAObRO-ApLfeXA8-vYKz-17" value="version &lt;font face=&quot;Georgia&quot;&gt;&lt;i&gt;i&#39;&lt;/i&gt;&lt;/font&gt;" style="text;html=1;align=center;verticalAlign=middle;resizable=0;points=[];autosize=1;strokeColor=none;fillColor=none;" vertex="1" parent="1">
          <mxGeometry x="485" y="248" width="70" height="30" as="geometry" />
        </mxCell>
      </root>
    </mxGraphModel>
  </diagram>
</mxfile>
